<svg width="100" height="100" viewBox="0 0 100 100" fill="none" xmlns="http://www.w3.org/2000/svg">
<g clip-path="url(#clip0_14_2)">
<path fill-rule="evenodd" clip-rule="evenodd" d="M-71 -133H745V923H-71V-133Z" fill="white"/>
<path d="M18.7595 36.1194H81.516" stroke="black" stroke-width="0.728" stroke-linejoin="bevel"/>
<path d="M18.7595 42.7328H81.516" stroke="black" stroke-width="0.728" stroke-linejoin="bevel"/>
<path d="M18.7595 49.3461H81.516" stroke="black" stroke-width="0.728" stroke-linejoin="bevel"/>
<path d="M18.7595 55.9595H81.516" stroke="black" stroke-width="0.728" stroke-linejoin="bevel"/>
<path d="M18.7595 62.5728H81.516" stroke="black" stroke-width="0.728" stroke-linejoin="bevel"/>
<path d="M34.8299 61.4072C34.3008 61.5146 33.8007 61.5684 33.2964 61.5684C29.5144 61.5684 26.2863 58.923 26.2863 54.9261C26.2863 51.7021 28.5596 48.817 30.8908 46.8041C31.3372 46.4073 31.763 46.0394 32.1598 45.6426C32.3954 47.0686 32.5813 48.3128 32.7673 49.3998C30.3576 50.1149 28.7208 52.6528 28.7208 55.141C28.7208 56.9928 30.1758 59.5306 32.292 59.5306C32.5028 59.5306 32.7426 59.4232 32.7426 59.1876C32.7426 58.9478 32.478 58.8156 32.1598 58.6048C31.1264 57.9682 30.5436 57.2821 30.5436 55.9842C30.5436 54.3722 31.734 53.0744 33.2964 52.7065L34.8299 61.4072ZM32.5028 34.214C32.7426 33.1558 33.9577 30.3782 35.3342 30.3782C35.731 30.3782 36.3634 31.672 36.3634 33.4989C36.3634 36.2517 34.3298 38.3142 32.5028 40.1122C32.3458 39.0541 32.2135 38.0249 32.2135 36.913C32.2135 35.9334 32.292 35.0324 32.5028 34.214ZM38.5871 56.5133C38.5871 58.394 37.8183 60.3242 35.9417 61.0931C35.3879 57.9186 34.6728 53.7109 34.4868 52.5453C36.8676 52.5453 38.5871 54.1614 38.5871 56.5133ZM26.9476 69.5292C26.9476 71.2776 28.2951 73.5799 31.8663 73.5799C33.1104 73.5799 34.1975 73.2616 35.1481 72.6788C36.5783 71.6744 36.9461 69.926 36.9461 68.2602C36.9461 67.231 36.7891 66.0406 36.5246 64.532C36.446 64.0029 36.2848 63.2093 36.1278 62.176C38.7193 61.3287 40.6496 58.6296 40.6496 55.9057C40.6496 51.9129 37.8183 49.2138 33.9577 49.2138C33.6932 47.6266 33.4287 46.0642 33.189 44.5845C35.9955 41.6457 37.9257 38.339 37.9257 34.1354C37.9257 31.7257 37.1859 29.7706 36.7602 28.8159C36.1278 27.4684 35.3589 26.5425 34.8836 26.5425C34.6976 26.5425 33.8792 26.8608 33.0071 27.8901C31.3124 29.9029 30.8371 33.2881 30.8371 35.5077C30.8371 36.9378 30.9694 38.2357 31.4199 41.1993C31.3909 41.2241 30.0146 42.6253 29.4607 43.0758C27.051 45.3244 23.7195 48.5236 23.7195 53.8184C23.7195 58.7619 28.0306 62.6513 32.9534 62.6513C33.718 62.6513 34.4331 62.5728 35.0407 62.4653C35.5449 65.0073 35.8343 66.859 35.8343 68.2602C35.8343 71.0131 34.4331 72.468 31.763 72.468C31.1264 72.468 30.5726 72.3357 30.5188 72.3357C30.494 72.3068 30.4403 72.282 30.4403 72.2572C30.4403 72.2035 30.494 72.1745 30.5726 72.1497C31.8167 71.9637 33.0567 70.9056 33.0567 69.2151C33.0567 67.7849 31.9737 66.2762 29.9897 66.2762C28.138 66.2762 26.9476 67.7849 26.9476 69.5292Z" fill="black"/>
<path d="M80.9208 35.7557V62.9365" stroke="black" stroke-width="1.18933" stroke-linejoin="bevel"/>
<path d="M65.5241 54.9013C65.5241 56.9928 64.437 58.1005 62.9036 59.3199L62.9821 54.1615C63.0358 53.9217 63.4326 53.1571 64.4908 53.1571C65.4456 53.1571 65.5241 54.054 65.5241 54.612V54.9013ZM65.2058 51.8592C63.8832 51.8592 63.1144 52.6776 62.9821 52.8388L63.0896 44.3448C63.0896 44.134 62.9325 43.9769 62.7176 43.9769H62.4034C62.1885 43.9769 62.0314 44.134 62.0314 44.3448L62.1637 60.2457C62.1637 60.4565 62.3208 60.6136 62.5357 60.6136C62.5853 60.6136 62.6928 60.5888 62.7465 60.564C65.0198 59.4232 67.4006 57.2573 67.4006 54.5293C67.4006 53.1571 66.7682 51.8592 65.2058 51.8592Z" fill="black"/>
<path d="M54.0582 48.288C54.0582 50.3795 52.9712 51.4872 51.4377 52.7065L51.5162 47.5481C51.57 47.3084 51.9668 46.5437 53.0249 46.5437C53.9797 46.5437 54.0582 47.4407 54.0582 47.9987V48.288ZM58.5016 48.288C58.5016 50.3795 57.4186 51.4872 55.881 52.7065L55.9637 47.5481C56.0133 47.3084 56.4101 46.5437 57.4724 46.5437C58.423 46.5437 58.5016 47.4407 58.5016 47.9987V48.288ZM58.1833 45.2459C56.8606 45.2459 56.096 46.0395 55.9637 46.1965L56.067 37.7314C56.067 37.5207 55.9099 37.3636 55.6992 37.3636H55.3809C55.1701 37.3636 55.0089 37.5207 55.0089 37.7314L55.0874 45.6964C54.7444 45.4319 54.3227 45.2459 53.74 45.2459C52.4173 45.2459 51.6485 46.0642 51.5162 46.2255L51.6237 37.7314C51.6237 37.5207 51.4666 37.3636 51.2517 37.3636H50.9376C50.7226 37.3636 50.5656 37.5207 50.5656 37.7314L50.6978 53.6324C50.6978 53.8432 50.8549 54.0003 51.0698 54.0003C51.1194 54.0003 51.2269 53.9507 51.2806 53.9217C52.8141 53.1571 54.1616 52.0452 55.1163 50.6151L55.1412 53.6324C55.1412 53.8432 55.3024 54.0003 55.5131 54.0003C55.5669 54.0003 55.6702 53.9507 55.724 53.9217C58.0014 52.7851 60.3822 50.6151 60.3822 47.8912C60.3822 46.5148 59.7457 45.2459 58.1833 45.2459Z" fill="black"/>
<path d="M68.3678 41.6747C68.3678 43.7661 67.2808 44.8739 65.7473 46.0932L65.8258 40.9348C65.8796 40.6951 66.2764 39.9304 67.3345 39.9304C68.2893 39.9304 68.3678 40.8273 68.3678 41.3853V41.6747ZM68.0496 38.6325C66.7269 38.6325 65.9581 39.4509 65.8258 39.6121L65.9333 31.1181C65.9333 30.9073 65.7762 30.7502 65.5613 30.7502H65.2472C65.0322 30.7502 64.8752 30.9073 64.8752 31.1181L65.0074 47.019C65.0074 47.2299 65.1645 47.3869 65.3794 47.3869C65.429 47.3869 65.5365 47.3621 65.5903 47.3373C67.8636 46.1965 70.2444 44.0307 70.2444 41.3027C70.2444 39.9304 69.612 38.6325 68.0496 38.6325Z" fill="black"/>
<path d="M72.2283 43.844V72.4928" stroke="black" stroke-width="0.661333" stroke-linejoin="bevel"/>
<path d="M71.8976 57.0713C71.8976 58.208 72.716 59.4769 74.8612 59.4769C77.6099 59.4769 80.4949 57.2284 80.4949 54.9013C80.4949 53.3389 79.1722 52.4668 77.5313 52.4668C74.9645 52.4668 71.8976 54.6368 71.8976 57.0713Z" fill="black"/>
<path d="M71.8976 50.458C71.8976 51.5946 72.716 52.8636 74.8612 52.8636C77.6099 52.8636 80.4949 50.615 80.4949 48.288C80.4949 46.7256 79.1722 45.8535 77.5313 45.8535C74.9645 45.8535 71.8976 48.0234 71.8976 50.458Z" fill="black"/>
<path d="M71.8976 43.8446C71.8976 44.9813 72.716 46.2502 74.8612 46.2502C77.6099 46.2502 80.4949 44.0017 80.4949 41.6746C80.4949 40.1122 79.1722 39.2401 77.5313 39.2401C74.9645 39.2401 71.8976 41.4101 71.8976 43.8446Z" fill="black"/>
</g>
<defs>
<clipPath id="clip0_14_2">
<rect width="100" height="100" fill="white"/>
</clipPath>
</defs>
</svg>
