<svg width="100" height="100" viewBox="0 0 100 100" fill="none" xmlns="http://www.w3.org/2000/svg">
<g clip-path="url(#clip0_14_2)">
<path fill-rule="evenodd" clip-rule="evenodd" d="M-71 -133H745V923H-71V-133Z" fill="white"/>
<path d="M18.7595 36.1194H81.516" stroke="black" stroke-width="0.728" stroke-linejoin="bevel"/>
<path d="M18.7595 42.7328H81.516" stroke="black" stroke-width="0.728" stroke-linejoin="bevel"/>
<path d="M18.7595 49.3461H81.516" stroke="black" stroke-width="0.728" stroke-linejoin="bevel"/>
<path d="M18.7595 55.9595H81.516" stroke="black" stroke-width="0.728" stroke-linejoin="bevel"/>
<path d="M18.7595 62.5728H81.516" stroke="black" stroke-width="0.728" stroke-linejoin="bevel"/>
<path d="M34.8299 61.4072C34.3008 61.5146 33.8007 61.5684 33.2964 61.5684C29.5144 61.5684 26.2863 58.923 26.2863 54.9261C26.2863 51.7021 28.5596 48.817 30.8908 46.8041C31.3372 46.4073 31.763 46.0394 32.1598 45.6426C32.3954 47.0686 32.5813 48.3128 32.7673 49.3998C30.3576 50.1149 28.7208 52.6528 28.7208 55.141C28.7208 56.9928 30.1758 59.5306 32.292 59.5306C32.5028 59.5306 32.7426 59.4232 32.7426 59.1876C32.7426 58.9478 32.478 58.8156 32.1598 58.6048C31.1264 57.9682 30.5436 57.2821 30.5436 55.9842C30.5436 54.3722 31.734 53.0744 33.2964 52.7065L34.8299 61.4072ZM32.5028 34.214C32.7426 33.1558 33.9577 30.3782 35.3342 30.3782C35.731 30.3782 36.3634 31.672 36.3634 33.4989C36.3634 36.2517 34.3298 38.3142 32.5028 40.1122C32.3458 39.0541 32.2135 38.0249 32.2135 36.913C32.2135 35.9334 32.292 35.0324 32.5028 34.214ZM38.5871 56.5133C38.5871 58.394 37.8183 60.3242 35.9417 61.0931C35.3879 57.9186 34.6728 53.7109 34.4868 52.5453C36.8676 52.5453 38.5871 54.1614 38.5871 56.5133ZM26.9476 69.5292C26.9476 71.2776 28.2951 73.5799 31.8663 73.5799C33.1104 73.5799 34.1975 73.2616 35.1481 72.6788C36.5783 71.6744 36.9461 69.926 36.9461 68.2602C36.9461 67.231 36.7891 66.0406 36.5246 64.532C36.446 64.0029 36.2848 63.2093 36.1278 62.176C38.7193 61.3287 40.6496 58.6296 40.6496 55.9057C40.6496 51.9129 37.8183 49.2138 33.9577 49.2138C33.6932 47.6266 33.4287 46.0642 33.189 44.5845C35.9955 41.6457 37.9257 38.339 37.9257 34.1354C37.9257 31.7257 37.1859 29.7706 36.7602 28.8159C36.1278 27.4684 35.3589 26.5425 34.8836 26.5425C34.6976 26.5425 33.8792 26.8608 33.0071 27.8901C31.3124 29.9029 30.8371 33.2881 30.8371 35.5077C30.8371 36.9378 30.9694 38.2357 31.4199 41.1993C31.3909 41.2241 30.0146 42.6253 29.4607 43.0758C27.051 45.3244 23.7195 48.5236 23.7195 53.8184C23.7195 58.7619 28.0306 62.6513 32.9534 62.6513C33.718 62.6513 34.4331 62.5728 35.0407 62.4653C35.5449 65.0073 35.8343 66.859 35.8343 68.2602C35.8343 71.0131 34.4331 72.468 31.763 72.468C31.1264 72.468 30.5726 72.3357 30.5188 72.3357C30.494 72.3068 30.4403 72.282 30.4403 72.2572C30.4403 72.2035 30.494 72.1745 30.5726 72.1497C31.8167 71.9637 33.0567 70.9056 33.0567 69.2151C33.0567 67.7849 31.9737 66.2762 29.9897 66.2762C28.138 66.2762 26.9476 67.7849 26.9476 69.5292Z" fill="black"/>
<path d="M80.9208 35.7557V62.9365" stroke="black" stroke-width="1.18933" stroke-linejoin="bevel"/>
<path d="M52.6281 40.7736L54.9841 40.2982V44.663L52.6281 45.1673V40.7736ZM56.7284 39.9552C56.8896 39.9304 57.0218 39.7444 57.0218 39.5832V38.0249C57.0218 37.8141 56.8606 37.6529 56.6498 37.6529H56.5961L55.724 37.8389V33.8957H54.9841V37.996L52.6281 38.4754V34.743H51.8882V38.6325L50.8549 38.8433C50.6978 38.8722 50.5656 39.0541 50.5656 39.2153V40.7488C50.5656 40.9596 50.7226 41.1208 50.9376 41.1208H51.0161L51.8882 40.9348V45.2996L50.8549 45.5104C50.6978 45.5352 50.5656 45.7212 50.5656 45.8824V47.4158C50.5656 47.6266 50.7226 47.7837 50.9376 47.7837H51.0161L51.8882 47.6019V51.5409H52.6281V47.4406L54.9841 46.9653V50.6977H55.724V46.8083L56.7284 46.6222C56.8896 46.5933 57.0218 46.4115 57.0218 46.2502V44.692C57.0218 44.477 56.8606 44.32 56.6498 44.32H56.5961L55.724 44.506V40.1412L56.7284 39.9552Z" fill="black"/>
<path d="M60.7334 34.1602L63.0894 33.6849V38.0497L60.7334 38.554V34.1602ZM64.8337 33.3418C64.9949 33.317 65.1272 33.131 65.1272 32.9698V31.4116C65.1272 31.2007 64.966 31.0396 64.7552 31.0396H64.7014L63.8293 31.2256V27.2823H63.0894V31.3826L60.7334 31.8621V28.1297H59.9936V32.0192L58.9602 32.23C58.8032 32.2589 58.6709 32.4407 58.6709 32.602V34.1354C58.6709 34.3462 58.828 34.5074 59.0429 34.5074H59.1214L59.9936 34.3214V38.6862L58.9602 38.897C58.8032 38.9218 58.6709 39.1078 58.6709 39.269V40.8025C58.6709 41.0133 58.828 41.1704 59.0429 41.1704H59.1214L59.9936 40.9885V44.9276H60.7334V40.8273L63.0894 40.352V44.0844H63.8293V40.1949L64.8337 40.0089C64.9949 39.98 65.1272 39.7981 65.1272 39.6369V38.0786C65.1272 37.8637 64.966 37.7066 64.7552 37.7066H64.7014L63.8293 37.8926V33.5278L64.8337 33.3418Z" fill="black"/>
<path d="M67.1072 37.2307V69.1861" stroke="black" stroke-width="0.661333" stroke-linejoin="bevel"/>
<path d="M66.7765 50.458C66.7765 51.5946 67.5949 52.8636 69.7401 52.8636C72.4888 52.8636 75.3738 50.615 75.3738 48.288C75.3738 46.7256 74.0512 45.8535 72.4102 45.8535C69.8434 45.8535 66.7765 48.0234 66.7765 50.458Z" fill="black"/>
<path d="M66.7765 43.8446C66.7765 44.9813 67.5949 46.2502 69.7401 46.2502C72.4888 46.2502 75.3738 44.0017 75.3738 41.6746C75.3738 40.1122 74.0512 39.2401 72.4102 39.2401C69.8434 39.2401 66.7765 41.4101 66.7765 43.8446Z" fill="black"/>
<path d="M66.7765 37.2313C66.7765 38.368 67.5949 39.6369 69.7401 39.6369C72.4888 39.6369 75.3738 37.3884 75.3738 35.0613C75.3738 33.4989 74.0512 32.6268 72.4102 32.6268C69.8434 32.6268 66.7765 34.7968 66.7765 37.2313Z" fill="black"/>
</g>
<defs>
<clipPath id="clip0_14_2">
<rect width="100" height="100" fill="white"/>
</clipPath>
</defs>
</svg>
