<svg width="100" height="100" viewBox="0 0 100 100" fill="none" xmlns="http://www.w3.org/2000/svg">
<g clip-path="url(#clip0_14_2)">
<path fill-rule="evenodd" clip-rule="evenodd" d="M-71 -133H745V923H-71V-133Z" fill="white"/>
<path d="M18.7595 36.1194H81.516" stroke="black" stroke-width="0.728" stroke-linejoin="bevel"/>
<path d="M18.7595 42.7328H81.516" stroke="black" stroke-width="0.728" stroke-linejoin="bevel"/>
<path d="M18.7595 49.3461H81.516" stroke="black" stroke-width="0.728" stroke-linejoin="bevel"/>
<path d="M18.7595 55.9595H81.516" stroke="black" stroke-width="0.728" stroke-linejoin="bevel"/>
<path d="M18.7595 62.5728H81.516" stroke="black" stroke-width="0.728" stroke-linejoin="bevel"/>
<path d="M34.8299 61.4072C34.3008 61.5146 33.8007 61.5684 33.2964 61.5684C29.5144 61.5684 26.2863 58.923 26.2863 54.9261C26.2863 51.7021 28.5596 48.817 30.8908 46.8041C31.3372 46.4073 31.763 46.0394 32.1598 45.6426C32.3954 47.0686 32.5813 48.3128 32.7673 49.3998C30.3576 50.1149 28.7208 52.6528 28.7208 55.141C28.7208 56.9928 30.1758 59.5306 32.292 59.5306C32.5028 59.5306 32.7426 59.4232 32.7426 59.1876C32.7426 58.9479 32.478 58.8156 32.1598 58.6048C31.1264 57.9682 30.5436 57.2821 30.5436 55.9842C30.5436 54.3722 31.734 53.0744 33.2964 52.7065L34.8299 61.4072ZM32.5028 34.214C32.7426 33.1558 33.9577 30.3782 35.3342 30.3782C35.731 30.3782 36.3634 31.672 36.3634 33.4989C36.3634 36.2517 34.3298 38.3142 32.5028 40.1122C32.3458 39.0541 32.2135 38.0249 32.2135 36.913C32.2135 35.9334 32.292 35.0324 32.5028 34.214ZM38.5871 56.5133C38.5871 58.394 37.8183 60.3242 35.9417 61.0931C35.3879 57.9186 34.6728 53.7109 34.4868 52.5453C36.8676 52.5453 38.5871 54.1614 38.5871 56.5133ZM26.9476 69.5292C26.9476 71.2776 28.2951 73.5799 31.8663 73.5799C33.1104 73.5799 34.1975 73.2616 35.1481 72.6788C36.5783 71.6744 36.9461 69.926 36.9461 68.2602C36.9461 67.2311 36.7891 66.0406 36.5246 64.532C36.446 64.0029 36.2848 63.2093 36.1278 62.176C38.7193 61.3287 40.6496 58.6296 40.6496 55.9057C40.6496 51.9129 37.8183 49.2138 33.9577 49.2138C33.6932 47.6266 33.4287 46.0642 33.189 44.5845C35.9955 41.6457 37.9257 38.339 37.9257 34.1354C37.9257 31.7257 37.1859 29.7706 36.7602 28.8159C36.1278 27.4684 35.3589 26.5425 34.8836 26.5425C34.6976 26.5425 33.8792 26.8608 33.0071 27.8901C31.3124 29.9029 30.8371 33.2881 30.8371 35.5077C30.8371 36.9378 30.9694 38.2357 31.4199 41.1993C31.3909 41.2241 30.0146 42.6253 29.4607 43.0759C27.051 45.3244 23.7195 48.5236 23.7195 53.8184C23.7195 58.7619 28.0306 62.6513 32.9534 62.6513C33.718 62.6513 34.4331 62.5728 35.0407 62.4653C35.5449 65.0073 35.8343 66.859 35.8343 68.2602C35.8343 71.0131 34.4331 72.468 31.763 72.468C31.1264 72.468 30.5726 72.3357 30.5188 72.3357C30.494 72.3068 30.4403 72.282 30.4403 72.2572C30.4403 72.2035 30.494 72.1745 30.5726 72.1497C31.8167 71.9637 33.0567 70.9056 33.0567 69.2151C33.0567 67.7849 31.9737 66.2762 29.9897 66.2762C28.138 66.2762 26.9476 67.7849 26.9476 69.5292Z" fill="black"/>
<path d="M80.9208 35.7557V62.9365" stroke="black" stroke-width="1.18933" stroke-linejoin="bevel"/>
<path d="M52.6281 57.3069L54.9841 56.8316V61.1964L52.6281 61.7006V57.3069ZM56.7284 56.4885C56.8896 56.4637 57.0218 56.2777 57.0218 56.1165V54.5582C57.0218 54.3474 56.8606 54.1862 56.6498 54.1862H56.5961L55.724 54.3722V50.429H54.9841V54.5293L52.6281 55.0088V51.2764H51.8882V55.1658L50.8549 55.3766C50.6978 55.4055 50.5656 55.5874 50.5656 55.7486V57.2821C50.5656 57.4929 50.7226 57.6541 50.9376 57.6541H51.0161L51.8882 57.4681V61.8329L50.8549 62.0437C50.6978 62.0685 50.5656 62.2545 50.5656 62.4157V63.9492C50.5656 64.16 50.7226 64.317 50.9376 64.317H51.0161L51.8882 64.1352V68.0742H52.6281V63.974L54.9841 63.4986V67.231H55.724V63.3416L56.7284 63.1556C56.8896 63.1266 57.0218 62.9448 57.0218 62.7836V61.2253C57.0218 61.0104 56.8606 60.8533 56.6498 60.8533H56.5961L55.724 61.0393V56.6745L56.7284 56.4885Z" fill="black"/>
<path d="M60.7334 50.6936L63.0894 50.2183V54.5831L60.7334 55.0873V50.6936ZM64.8337 49.8752C64.9949 49.8504 65.1272 49.6644 65.1272 49.5032V47.9449C65.1272 47.7341 64.966 47.5729 64.7552 47.5729H64.7014L63.8293 47.7589V43.8157H63.0894V47.916L60.7334 48.3954V44.6631H59.9936V48.5525L58.9602 48.7633C58.8032 48.7922 58.6709 48.9741 58.6709 49.1353V50.6688C58.6709 50.8796 58.828 51.0408 59.0429 51.0408H59.1214L59.9936 50.8548V55.2196L58.9602 55.4304C58.8032 55.4552 58.6709 55.6412 58.6709 55.8024V57.3358C58.6709 57.5467 58.828 57.7037 59.0429 57.7037H59.1214L59.9936 57.5219V61.4609H60.7334V57.3607L63.0894 56.8853V60.6177H63.8293V56.7283L64.8337 56.5422C64.9949 56.5133 65.1272 56.3315 65.1272 56.1703V54.612C65.1272 54.3971 64.966 54.24 64.7552 54.24H64.7014L63.8293 54.426V50.0612L64.8337 49.8752Z" fill="black"/>
<path d="M75.0432 64.8213V31.1595" stroke="black" stroke-width="0.661333" stroke-linejoin="bevel"/>
<path d="M66.7765 66.9913C66.7765 68.128 67.5949 69.3969 69.7401 69.3969C72.4888 69.3969 75.3738 67.1484 75.3738 64.8213C75.3738 63.2589 74.0512 62.3868 72.4102 62.3868C69.8434 62.3868 66.7765 64.5568 66.7765 66.9913Z" fill="black"/>
<path d="M66.7765 60.378C66.7765 61.5146 67.5949 62.7836 69.7401 62.7836C72.4888 62.7836 75.3738 60.535 75.3738 58.208C75.3738 56.6456 74.0512 55.7734 72.4102 55.7734C69.8434 55.7734 66.7765 57.9434 66.7765 60.378Z" fill="black"/>
<path d="M66.7765 53.7647C66.7765 54.9013 67.5949 56.1703 69.7401 56.1703C72.4888 56.1703 75.3738 53.9217 75.3738 51.5947C75.3738 50.0323 74.0512 49.1601 72.4102 49.1601C69.8434 49.1601 66.7765 51.3301 66.7765 53.7647Z" fill="black"/>
</g>
<defs>
<clipPath id="clip0_14_2">
<rect width="100" height="100" fill="white"/>
</clipPath>
</defs>
</svg>
