<svg width="100" height="100" viewBox="0 0 100 100" fill="none" xmlns="http://www.w3.org/2000/svg">
<g clip-path="url(#clip0_14_2)">
<path fill-rule="evenodd" clip-rule="evenodd" d="M-71 -133H745V923H-71V-133Z" fill="white"/>
<path d="M18.7595 36.1194H81.516" stroke="black" stroke-width="0.728" stroke-linejoin="bevel"/>
<path d="M18.7595 42.7328H81.516" stroke="black" stroke-width="0.728" stroke-linejoin="bevel"/>
<path d="M18.7595 49.3461H81.516" stroke="black" stroke-width="0.728" stroke-linejoin="bevel"/>
<path d="M18.7595 55.9595H81.516" stroke="black" stroke-width="0.728" stroke-linejoin="bevel"/>
<path d="M18.7595 62.5728H81.516" stroke="black" stroke-width="0.728" stroke-linejoin="bevel"/>
<path d="M34.8299 61.4072C34.3008 61.5146 33.8007 61.5684 33.2964 61.5684C29.5144 61.5684 26.2863 58.923 26.2863 54.9261C26.2863 51.7021 28.5596 48.817 30.8908 46.8041C31.3372 46.4073 31.763 46.0394 32.1598 45.6426C32.3954 47.0686 32.5813 48.3128 32.7673 49.3998C30.3576 50.1149 28.7208 52.6528 28.7208 55.141C28.7208 56.9928 30.1758 59.5306 32.292 59.5306C32.5028 59.5306 32.7426 59.4232 32.7426 59.1876C32.7426 58.9479 32.478 58.8156 32.1598 58.6048C31.1264 57.9682 30.5436 57.2821 30.5436 55.9842C30.5436 54.3722 31.734 53.0744 33.2964 52.7065L34.8299 61.4072ZM32.5028 34.214C32.7426 33.1558 33.9577 30.3782 35.3342 30.3782C35.731 30.3782 36.3634 31.672 36.3634 33.4989C36.3634 36.2517 34.3298 38.3142 32.5028 40.1122C32.3458 39.0541 32.2135 38.0249 32.2135 36.913C32.2135 35.9334 32.292 35.0324 32.5028 34.214ZM38.5871 56.5133C38.5871 58.394 37.8183 60.3242 35.9417 61.0931C35.3879 57.9186 34.6728 53.7109 34.4868 52.5453C36.8676 52.5453 38.5871 54.1614 38.5871 56.5133ZM26.9476 69.5292C26.9476 71.2776 28.2951 73.5799 31.8663 73.5799C33.1104 73.5799 34.1975 73.2616 35.1481 72.6788C36.5783 71.6744 36.9461 69.926 36.9461 68.2602C36.9461 67.2311 36.7891 66.0406 36.5246 64.532C36.446 64.0029 36.2848 63.2093 36.1278 62.176C38.7193 61.3287 40.6496 58.6296 40.6496 55.9057C40.6496 51.9129 37.8183 49.2138 33.9577 49.2138C33.6932 47.6266 33.4287 46.0642 33.189 44.5845C35.9955 41.6457 37.9257 38.339 37.9257 34.1354C37.9257 31.7257 37.1859 29.7706 36.7602 28.8159C36.1278 27.4684 35.3589 26.5425 34.8836 26.5425C34.6976 26.5425 33.8792 26.8608 33.0071 27.8901C31.3124 29.9029 30.8371 33.2881 30.8371 35.5077C30.8371 36.9378 30.9694 38.2357 31.4199 41.1993C31.3909 41.2241 30.0146 42.6253 29.4607 43.0759C27.051 45.3244 23.7195 48.5236 23.7195 53.8184C23.7195 58.7619 28.0306 62.6513 32.9534 62.6513C33.718 62.6513 34.4331 62.5728 35.0407 62.4653C35.5449 65.0073 35.8343 66.859 35.8343 68.2602C35.8343 71.0131 34.4331 72.468 31.763 72.468C31.1264 72.468 30.5726 72.3357 30.5188 72.3357C30.494 72.3068 30.4403 72.282 30.4403 72.2572C30.4403 72.2035 30.494 72.1745 30.5726 72.1497C31.8167 71.9637 33.0567 70.9056 33.0567 69.2151C33.0567 67.7849 31.9737 66.2762 29.9897 66.2762C28.138 66.2762 26.9476 67.7849 26.9476 69.5292Z" fill="black"/>
<path d="M80.9208 35.7557V62.9365" stroke="black" stroke-width="1.18933" stroke-linejoin="bevel"/>
<path d="M54.0582 64.8213C54.0582 66.9128 52.9712 68.0205 51.4377 69.2398L51.5162 64.0815C51.57 63.8417 51.9668 63.077 53.0249 63.077C53.9797 63.077 54.0582 63.974 54.0582 64.532V64.8213ZM53.74 61.7792C52.4173 61.7792 51.6485 62.5976 51.5162 62.7588L51.6237 54.2648C51.6237 54.054 51.4666 53.8969 51.2517 53.8969H50.9376C50.7226 53.8969 50.5656 54.054 50.5656 54.2648L50.6978 70.1657C50.6978 70.3765 50.8549 70.5336 51.0698 70.5336C51.1194 70.5336 51.2269 70.5088 51.2806 70.484C53.554 69.3432 55.9348 67.1773 55.9348 64.4493C55.9348 63.077 55.3024 61.7792 53.74 61.7792Z" fill="black"/>
<path d="M56.902 51.5947C56.902 53.6862 55.8149 54.7939 54.2814 56.0132L54.36 50.8548C54.4137 50.6151 54.8105 49.8504 55.8686 49.8504C56.8234 49.8504 56.902 50.7474 56.902 51.3054V51.5947ZM56.5837 48.5526C55.261 48.5526 54.4922 49.3709 54.36 49.5322L54.4674 41.0381C54.4674 40.8274 54.3104 40.6703 54.0954 40.6703H53.7813C53.5664 40.6703 53.4093 40.8274 53.4093 41.0381L53.5416 56.9391C53.5416 57.1499 53.6986 57.307 53.9136 57.307C53.9632 57.307 54.0706 57.2822 54.1244 57.2574C56.3977 56.1166 58.7785 53.9507 58.7785 51.2227C58.7785 49.8504 58.1461 48.5526 56.5837 48.5526Z" fill="black"/>
<path d="M68.6984 64.8213V31.1594" stroke="black" stroke-width="0.661333" stroke-linejoin="bevel"/>
<path d="M60.4318 66.9913C60.4318 68.128 61.2502 69.3969 63.3954 69.3969C66.144 69.3969 69.0291 67.1484 69.0291 64.8213C69.0291 63.2589 67.7064 62.3868 66.0655 62.3868C63.4987 62.3868 60.4318 64.5568 60.4318 66.9913Z" fill="black"/>
<path d="M60.4318 60.378C60.4318 61.5146 61.2502 62.7836 63.3954 62.7836C66.144 62.7836 69.0291 60.535 69.0291 58.208C69.0291 56.6456 67.7064 55.7734 66.0655 55.7734C63.4987 55.7734 60.4318 57.9434 60.4318 60.378Z" fill="black"/>
<path d="M60.4318 53.7647C60.4318 54.9014 61.2502 56.1703 63.3954 56.1703C66.144 56.1703 69.0291 53.9218 69.0291 51.5947C69.0291 50.0323 67.7064 49.1602 66.0655 49.1602C63.4987 49.1602 60.4318 51.3302 60.4318 53.7647Z" fill="black"/>
</g>
<defs>
<clipPath id="clip0_14_2">
<rect width="100" height="100" fill="white"/>
</clipPath>
</defs>
</svg>
