<svg width="100" height="100" viewBox="0 0 100 100" fill="none" xmlns="http://www.w3.org/2000/svg">
<g clip-path="url(#clip0_14_2)">
<path fill-rule="evenodd" clip-rule="evenodd" d="M-71 -133H745V923H-71V-133Z" fill="white"/>
<path d="M18.7595 36.1194H81.516" stroke="black" stroke-width="0.728" stroke-linejoin="bevel"/>
<path d="M18.7595 42.7328H81.516" stroke="black" stroke-width="0.728" stroke-linejoin="bevel"/>
<path d="M18.7595 49.3461H81.516" stroke="black" stroke-width="0.728" stroke-linejoin="bevel"/>
<path d="M18.7595 55.9595H81.516" stroke="black" stroke-width="0.728" stroke-linejoin="bevel"/>
<path d="M18.7595 62.5728H81.516" stroke="black" stroke-width="0.728" stroke-linejoin="bevel"/>
<path d="M34.8299 61.4072C34.3008 61.5146 33.8007 61.5684 33.2964 61.5684C29.5144 61.5684 26.2863 58.923 26.2863 54.9261C26.2863 51.7021 28.5596 48.817 30.8908 46.8041C31.3372 46.4073 31.763 46.0394 32.1598 45.6426C32.3954 47.0686 32.5813 48.3128 32.7673 49.3998C30.3576 50.1149 28.7208 52.6528 28.7208 55.141C28.7208 56.9928 30.1758 59.5306 32.292 59.5306C32.5028 59.5306 32.7426 59.4232 32.7426 59.1876C32.7426 58.9478 32.478 58.8156 32.1598 58.6048C31.1264 57.9682 30.5436 57.2821 30.5436 55.9842C30.5436 54.3722 31.734 53.0744 33.2964 52.7065L34.8299 61.4072ZM32.5028 34.214C32.7426 33.1558 33.9577 30.3782 35.3342 30.3782C35.731 30.3782 36.3634 31.672 36.3634 33.4989C36.3634 36.2517 34.3298 38.3142 32.5028 40.1122C32.3458 39.0541 32.2135 38.0249 32.2135 36.913C32.2135 35.9334 32.292 35.0324 32.5028 34.214ZM38.5871 56.5133C38.5871 58.394 37.8183 60.3242 35.9417 61.0931C35.3879 57.9186 34.6728 53.7109 34.4868 52.5453C36.8676 52.5453 38.5871 54.1614 38.5871 56.5133ZM26.9476 69.5292C26.9476 71.2776 28.2951 73.5799 31.8663 73.5799C33.1104 73.5799 34.1975 73.2616 35.1481 72.6788C36.5783 71.6744 36.9461 69.926 36.9461 68.2602C36.9461 67.231 36.7891 66.0406 36.5246 64.532C36.446 64.0029 36.2848 63.2093 36.1278 62.176C38.7193 61.3287 40.6496 58.6296 40.6496 55.9057C40.6496 51.9129 37.8183 49.2138 33.9577 49.2138C33.6932 47.6266 33.4287 46.0642 33.189 44.5845C35.9955 41.6457 37.9257 38.339 37.9257 34.1354C37.9257 31.7257 37.1859 29.7706 36.7602 28.8159C36.1278 27.4684 35.3589 26.5425 34.8836 26.5425C34.6976 26.5425 33.8792 26.8608 33.0071 27.8901C31.3124 29.9029 30.8371 33.2881 30.8371 35.5077C30.8371 36.9378 30.9694 38.2357 31.4199 41.1993C31.3909 41.2241 30.0146 42.6253 29.4607 43.0758C27.051 45.3244 23.7195 48.5236 23.7195 53.8184C23.7195 58.7619 28.0306 62.6513 32.9534 62.6513C33.718 62.6513 34.4331 62.5728 35.0407 62.4653C35.5449 65.0073 35.8343 66.859 35.8343 68.2602C35.8343 71.0131 34.4331 72.468 31.763 72.468C31.1264 72.468 30.5726 72.3357 30.5188 72.3357C30.494 72.3068 30.4403 72.282 30.4403 72.2572C30.4403 72.2035 30.494 72.1745 30.5726 72.1497C31.8167 71.9637 33.0567 70.9056 33.0567 69.2151C33.0567 67.7849 31.9737 66.2762 29.9897 66.2762C28.138 66.2762 26.9476 67.7849 26.9476 69.5292Z" fill="black"/>
<path d="M80.9208 35.7557V62.9365" stroke="black" stroke-width="1.18933" stroke-linejoin="bevel"/>
<path d="M61.0806 61.5146C61.0806 63.6061 59.9936 64.7138 58.4601 65.9331L58.5386 60.7747C58.5924 60.535 58.9892 59.7703 60.0473 59.7703C61.0021 59.7703 61.0806 60.6673 61.0806 61.2253V61.5146ZM60.7624 58.4725C59.4397 58.4725 58.6709 59.2909 58.5386 59.4521L58.6461 50.9581C58.6461 50.7473 58.489 50.5902 58.2741 50.5902H57.96C57.745 50.5902 57.588 50.7473 57.588 50.9581L57.7202 66.859C57.7202 67.0698 57.8773 67.2269 58.0922 67.2269C58.1418 67.2269 58.2493 67.2021 58.303 67.1773C60.5764 66.0365 62.9572 63.8706 62.9572 61.1426C62.9572 59.7703 62.3248 58.4725 60.7624 58.4725Z" fill="black"/>
<path d="M54.0582 54.9013C54.0582 56.9928 52.9712 58.1005 51.4377 59.3199L51.5162 54.1615C51.57 53.9217 51.9668 53.1571 53.0249 53.1571C53.9797 53.1571 54.0582 54.054 54.0582 54.612V54.9013ZM53.74 51.8592C52.4173 51.8592 51.6485 52.6776 51.5162 52.8388L51.6237 44.3448C51.6237 44.134 51.4666 43.9769 51.2517 43.9769H50.9376C50.7226 43.9769 50.5656 44.134 50.5656 44.3448L50.6978 60.2457C50.6978 60.4565 50.8549 60.6136 51.0698 60.6136C51.1194 60.6136 51.2269 60.5888 51.2806 60.564C53.554 59.4232 55.9348 57.2573 55.9348 54.5293C55.9348 53.1571 55.3024 51.8592 53.74 51.8592Z" fill="black"/>
<path d="M63.9243 48.2879C63.9243 50.3794 62.8372 51.4871 61.3038 52.7065L61.3823 47.5481C61.436 47.3083 61.8328 46.5437 62.891 46.5437C63.8458 46.5437 63.9243 47.4406 63.9243 47.9986V48.2879ZM63.606 45.2458C62.2834 45.2458 61.5146 46.0642 61.3823 46.2254L61.4898 37.7314C61.4898 37.5206 61.3327 37.3635 61.1178 37.3635H60.8036C60.5887 37.3635 60.4316 37.5206 60.4316 37.7314L60.5639 53.6323C60.5639 53.8431 60.721 54.0002 60.9359 54.0002C60.9855 54.0002 61.093 53.9754 61.1467 53.9506C63.42 52.8098 65.8008 50.6439 65.8008 47.9159C65.8008 46.5437 65.1685 45.2458 63.606 45.2458Z" fill="black"/>
<path d="M75.7211 61.5146V29.5061" stroke="black" stroke-width="0.661333" stroke-linejoin="bevel"/>
<path d="M67.4543 63.6846C67.4543 64.8213 68.2727 66.0902 70.4179 66.0902C73.1666 66.0902 76.0517 63.8417 76.0517 61.5146C76.0517 59.9522 74.729 59.0801 73.0881 59.0801C70.5213 59.0801 67.4543 61.2501 67.4543 63.6846Z" fill="black"/>
<path d="M67.4543 57.0713C67.4543 58.208 68.2727 59.4769 70.4179 59.4769C73.1666 59.4769 76.0517 57.2284 76.0517 54.9013C76.0517 53.3389 74.729 52.4668 73.0881 52.4668C70.5213 52.4668 67.4543 54.6368 67.4543 57.0713Z" fill="black"/>
<path d="M67.4543 50.458C67.4543 51.5947 68.2727 52.8636 70.4179 52.8636C73.1666 52.8636 76.0517 50.6151 76.0517 48.288C76.0517 46.7256 74.729 45.8535 73.0881 45.8535C70.5213 45.8535 67.4543 48.0235 67.4543 50.458Z" fill="black"/>
</g>
<defs>
<clipPath id="clip0_14_2">
<rect width="100" height="100" fill="white"/>
</clipPath>
</defs>
</svg>
