<svg width="100" height="100" viewBox="0 0 100 100" fill="none" xmlns="http://www.w3.org/2000/svg">
<g clip-path="url(#clip0_14_2)">
<path fill-rule="evenodd" clip-rule="evenodd" d="M-71 -133H745V923H-71V-133Z" fill="white"/>
<path d="M18.7595 36.1194H81.516" stroke="black" stroke-width="0.728" stroke-linejoin="bevel"/>
<path d="M18.7595 42.7328H81.516" stroke="black" stroke-width="0.728" stroke-linejoin="bevel"/>
<path d="M18.7595 49.3461H81.516" stroke="black" stroke-width="0.728" stroke-linejoin="bevel"/>
<path d="M18.7595 55.9595H81.516" stroke="black" stroke-width="0.728" stroke-linejoin="bevel"/>
<path d="M18.7595 62.5728H81.516" stroke="black" stroke-width="0.728" stroke-linejoin="bevel"/>
<path d="M34.8299 61.4072C34.3008 61.5146 33.8007 61.5684 33.2964 61.5684C29.5144 61.5684 26.2863 58.923 26.2863 54.9261C26.2863 51.7021 28.5596 48.817 30.8908 46.8041C31.3372 46.4073 31.763 46.0394 32.1598 45.6426C32.3954 47.0686 32.5813 48.3128 32.7673 49.3998C30.3576 50.1149 28.7208 52.6528 28.7208 55.141C28.7208 56.9928 30.1758 59.5306 32.292 59.5306C32.5028 59.5306 32.7426 59.4232 32.7426 59.1876C32.7426 58.9479 32.478 58.8156 32.1598 58.6048C31.1264 57.9682 30.5436 57.2821 30.5436 55.9842C30.5436 54.3722 31.734 53.0744 33.2964 52.7065L34.8299 61.4072ZM32.5028 34.214C32.7426 33.1558 33.9577 30.3782 35.3342 30.3782C35.731 30.3782 36.3634 31.672 36.3634 33.4989C36.3634 36.2517 34.3298 38.3142 32.5028 40.1122C32.3458 39.0541 32.2135 38.0249 32.2135 36.913C32.2135 35.9334 32.292 35.0324 32.5028 34.214ZM38.5871 56.5133C38.5871 58.394 37.8183 60.3242 35.9417 61.0931C35.3879 57.9186 34.6728 53.7109 34.4868 52.5453C36.8676 52.5453 38.5871 54.1614 38.5871 56.5133ZM26.9476 69.5292C26.9476 71.2776 28.2951 73.5799 31.8663 73.5799C33.1104 73.5799 34.1975 73.2616 35.1481 72.6788C36.5783 71.6744 36.9461 69.926 36.9461 68.2602C36.9461 67.2311 36.7891 66.0406 36.5246 64.532C36.446 64.0029 36.2848 63.2093 36.1278 62.176C38.7193 61.3287 40.6496 58.6296 40.6496 55.9057C40.6496 51.9129 37.8183 49.2138 33.9577 49.2138C33.6932 47.6266 33.4287 46.0642 33.189 44.5845C35.9955 41.6457 37.9257 38.339 37.9257 34.1354C37.9257 31.7257 37.1859 29.7706 36.7602 28.8159C36.1278 27.4684 35.3589 26.5425 34.8836 26.5425C34.6976 26.5425 33.8792 26.8608 33.0071 27.8901C31.3124 29.9029 30.8371 33.2881 30.8371 35.5077C30.8371 36.9378 30.9694 38.2357 31.4199 41.1993C31.3909 41.2241 30.0146 42.6253 29.4607 43.0759C27.051 45.3244 23.7195 48.5236 23.7195 53.8184C23.7195 58.7619 28.0306 62.6513 32.9534 62.6513C33.718 62.6513 34.4331 62.5728 35.0407 62.4653C35.5449 65.0073 35.8343 66.859 35.8343 68.2602C35.8343 71.0131 34.4331 72.468 31.763 72.468C31.1264 72.468 30.5726 72.3357 30.5188 72.3357C30.494 72.3068 30.4403 72.282 30.4403 72.2572C30.4403 72.2035 30.494 72.1745 30.5726 72.1497C31.8167 71.9637 33.0567 70.9056 33.0567 69.2151C33.0567 67.7849 31.9737 66.2762 29.9897 66.2762C28.138 66.2762 26.9476 67.7849 26.9476 69.5292Z" fill="black"/>
<path d="M80.9208 35.7557V62.9365" stroke="black" stroke-width="1.18933" stroke-linejoin="bevel"/>
<path d="M52.6281 30.8536L54.9841 30.3783V34.7431L52.6281 35.2473V30.8536ZM56.7284 30.0352C56.8896 30.0104 57.0218 29.8244 57.0218 29.6632V28.1049C57.0218 27.8941 56.8606 27.7329 56.6498 27.7329H56.5961L55.724 27.9189V23.9757H54.9841V28.076L52.6281 28.5554V24.8231H51.8882V28.7125L50.8549 28.9233C50.6978 28.9522 50.5656 29.1341 50.5656 29.2953V30.8288C50.5656 31.0396 50.7226 31.2008 50.9376 31.2008H51.0161L51.8882 31.0148V35.3796L50.8549 35.5904C50.6978 35.6152 50.5656 35.8012 50.5656 35.9624V37.4958C50.5656 37.7067 50.7226 37.8637 50.9376 37.8637H51.0161L51.8882 37.6819V41.6209H52.6281V37.5207L54.9841 37.0453V40.7777H55.724V36.8883L56.7284 36.7022C56.8896 36.6733 57.0218 36.4915 57.0218 36.3303V34.772C57.0218 34.5571 56.8606 34.4 56.6498 34.4H56.5961L55.724 34.586V30.2212L56.7284 30.0352Z" fill="black"/>
<path d="M60.7334 24.2402L63.0894 23.7649V28.1297L60.7334 28.6339V24.2402ZM64.8337 23.4218C64.9949 23.397 65.1272 23.211 65.1272 23.0498V21.4915C65.1272 21.2807 64.966 21.1195 64.7552 21.1195H64.7014L63.8293 21.3055V17.3623H63.0894V21.4626L60.7334 21.942V18.2097H59.9936V22.0991L58.9602 22.3099C58.8032 22.3388 58.6709 22.5207 58.6709 22.6819V24.2154C58.6709 24.4262 58.828 24.5874 59.0429 24.5874H59.1214L59.9936 24.4014V28.7662L58.9602 28.977C58.8032 29.0018 58.6709 29.1878 58.6709 29.349V30.8824C58.6709 31.0933 58.828 31.2503 59.0429 31.2503H59.1214L59.9936 31.0685V35.0075H60.7334V30.9073L63.0894 30.4319V34.1643H63.8293V30.2749L64.8337 30.0888C64.9949 30.0599 65.1272 29.8781 65.1272 29.7169V28.1586C65.1272 27.9437 64.966 27.7866 64.7552 27.7866H64.7014L63.8293 27.9726V23.6078L64.8337 23.4218Z" fill="black"/>
<path d="M66.3136 29.5061H79.2715" stroke="black" stroke-width="1.05867" stroke-linejoin="bevel"/>
<path d="M68.8267 27.3107V62.5728" stroke="black" stroke-width="0.661333" stroke-linejoin="bevel"/>
<path d="M68.496 40.538C68.496 41.6747 69.3144 42.9436 71.4596 42.9436C74.2083 42.9436 77.0933 40.6951 77.0933 38.368C77.0933 36.8056 75.7706 35.9335 74.1297 35.9335C71.5629 35.9335 68.496 38.1035 68.496 40.538Z" fill="black"/>
<path d="M68.496 33.9246C68.496 35.0613 69.3144 36.3302 71.4596 36.3302C74.2083 36.3302 77.0933 34.0817 77.0933 31.7546C77.0933 30.1922 75.7706 29.3201 74.1297 29.3201C71.5629 29.3201 68.496 31.4901 68.496 33.9246Z" fill="black"/>
<path d="M68.496 27.3113C68.496 28.448 69.3144 29.7169 71.4596 29.7169C74.2083 29.7169 77.0933 27.4684 77.0933 25.1413C77.0933 23.5789 75.7706 22.7068 74.1297 22.7068C71.5629 22.7068 68.496 24.8768 68.496 27.3113Z" fill="black"/>
</g>
<defs>
<clipPath id="clip0_14_2">
<rect width="100" height="100" fill="white"/>
</clipPath>
</defs>
</svg>
