<svg width="100" height="100" viewBox="0 0 100 100" fill="none" xmlns="http://www.w3.org/2000/svg">
<g clip-path="url(#clip0_14_2)">
<path fill-rule="evenodd" clip-rule="evenodd" d="M-71 -133H745V923H-71V-133Z" fill="white"/>
<path d="M18.7595 36.1194H81.516" stroke="black" stroke-width="0.728" stroke-linejoin="bevel"/>
<path d="M18.7595 42.7328H81.516" stroke="black" stroke-width="0.728" stroke-linejoin="bevel"/>
<path d="M18.7595 49.3461H81.516" stroke="black" stroke-width="0.728" stroke-linejoin="bevel"/>
<path d="M18.7595 55.9595H81.516" stroke="black" stroke-width="0.728" stroke-linejoin="bevel"/>
<path d="M18.7595 62.5728H81.516" stroke="black" stroke-width="0.728" stroke-linejoin="bevel"/>
<path d="M34.8299 61.4072C34.3008 61.5146 33.8007 61.5684 33.2964 61.5684C29.5144 61.5684 26.2863 58.923 26.2863 54.9261C26.2863 51.7021 28.5596 48.817 30.8908 46.8041C31.3372 46.4073 31.763 46.0394 32.1598 45.6426C32.3954 47.0686 32.5813 48.3128 32.7673 49.3998C30.3576 50.1149 28.7208 52.6528 28.7208 55.141C28.7208 56.9928 30.1758 59.5306 32.292 59.5306C32.5028 59.5306 32.7426 59.4232 32.7426 59.1876C32.7426 58.9479 32.478 58.8156 32.1598 58.6048C31.1264 57.9682 30.5436 57.2821 30.5436 55.9842C30.5436 54.3722 31.734 53.0744 33.2964 52.7065L34.8299 61.4072ZM32.5028 34.214C32.7426 33.1558 33.9577 30.3782 35.3342 30.3782C35.731 30.3782 36.3634 31.672 36.3634 33.4989C36.3634 36.2517 34.3298 38.3142 32.5028 40.1122C32.3458 39.0541 32.2135 38.0249 32.2135 36.913C32.2135 35.9334 32.292 35.0324 32.5028 34.214ZM38.5871 56.5133C38.5871 58.394 37.8183 60.3242 35.9417 61.0931C35.3879 57.9186 34.6728 53.7109 34.4868 52.5453C36.8676 52.5453 38.5871 54.1614 38.5871 56.5133ZM26.9476 69.5292C26.9476 71.2776 28.2951 73.5799 31.8663 73.5799C33.1104 73.5799 34.1975 73.2616 35.1481 72.6788C36.5783 71.6744 36.9461 69.926 36.9461 68.2602C36.9461 67.2311 36.7891 66.0406 36.5246 64.532C36.446 64.0029 36.2848 63.2093 36.1278 62.176C38.7193 61.3287 40.6496 58.6296 40.6496 55.9057C40.6496 51.9129 37.8183 49.2138 33.9577 49.2138C33.6932 47.6266 33.4287 46.0642 33.189 44.5845C35.9955 41.6457 37.9257 38.339 37.9257 34.1354C37.9257 31.7257 37.1859 29.7706 36.7602 28.8159C36.1278 27.4684 35.3589 26.5425 34.8836 26.5425C34.6976 26.5425 33.8792 26.8608 33.0071 27.8901C31.3124 29.9029 30.8371 33.2881 30.8371 35.5077C30.8371 36.9378 30.9694 38.2357 31.4199 41.1993C31.3909 41.2241 30.0146 42.6253 29.4607 43.0759C27.051 45.3244 23.7195 48.5236 23.7195 53.8184C23.7195 58.7619 28.0306 62.6513 32.9534 62.6513C33.718 62.6513 34.4331 62.5728 35.0407 62.4653C35.5449 65.0073 35.8343 66.859 35.8343 68.2602C35.8343 71.0131 34.4331 72.468 31.763 72.468C31.1264 72.468 30.5726 72.3357 30.5188 72.3357C30.494 72.3068 30.4403 72.282 30.4403 72.2572C30.4403 72.2035 30.494 72.1745 30.5726 72.1497C31.8167 71.9637 33.0567 70.9056 33.0567 69.2151C33.0567 67.7849 31.9737 66.2762 29.9897 66.2762C28.138 66.2762 26.9476 67.7849 26.9476 69.5292Z" fill="black"/>
<path d="M80.9208 35.7557V62.9365" stroke="black" stroke-width="1.18933" stroke-linejoin="bevel"/>
<path d="M52.6281 47.3869L54.9841 46.9116V51.2764L52.6281 51.7806V47.3869ZM56.7284 46.5685C56.8896 46.5437 57.0218 46.3577 57.0218 46.1965V44.6382C57.0218 44.4274 56.8606 44.2663 56.6498 44.2663H56.5961L55.724 44.4522V40.509H54.9841V44.6093L52.6281 45.0888V41.3564H51.8882V45.2458L50.8549 45.4567C50.6978 45.4856 50.5656 45.6674 50.5656 45.8286V47.3621C50.5656 47.5729 50.7226 47.7341 50.9376 47.7341H51.0161L51.8882 47.5481V51.9129L50.8549 52.1237C50.6978 52.1485 50.5656 52.3345 50.5656 52.4957V54.0292C50.5656 54.24 50.7226 54.3971 50.9376 54.3971H51.0161L51.8882 54.2152V58.1543H52.6281V54.054L54.9841 53.5786V57.3111H55.724V53.4216L56.7284 53.2356C56.8896 53.2067 57.0218 53.0248 57.0218 52.8636V51.3053C57.0218 51.0904 56.8606 50.9333 56.6498 50.9333H56.5961L55.724 51.1193V46.7545L56.7284 46.5685Z" fill="black"/>
<path d="M66.9376 61.5147V26.1995" stroke="black" stroke-width="0.661333" stroke-linejoin="bevel"/>
<path d="M58.6709 63.6846C58.6709 64.8213 59.4893 66.0902 61.6345 66.0902C64.3832 66.0902 67.2682 63.8417 67.2682 61.5146C67.2682 59.9522 65.9456 59.0801 64.3046 59.0801C61.7378 59.0801 58.6709 61.2501 58.6709 63.6846Z" fill="black"/>
<path d="M58.6709 53.7647C58.6709 54.9014 59.4893 56.1703 61.6345 56.1703C64.3832 56.1703 67.2682 53.9218 67.2682 51.5947C67.2682 50.0323 65.9456 49.1602 64.3046 49.1602C61.7378 49.1602 58.6709 51.3302 58.6709 53.7647Z" fill="black"/>
<path d="M66.6069 50.458C66.6069 51.5947 67.4253 52.8636 69.5705 52.8636C72.3192 52.8636 75.2043 50.6151 75.2043 48.288C75.2043 46.7256 73.8816 45.8535 72.2407 45.8535C69.6739 45.8535 66.6069 48.0235 66.6069 50.458Z" fill="black"/>
<path d="M58.6709 43.8446C58.6709 44.9813 59.4893 46.2502 61.6345 46.2502C64.3832 46.2502 67.2682 44.0017 67.2682 41.6746C67.2682 40.1122 65.9456 39.2401 64.3046 39.2401C61.7378 39.2401 58.6709 41.4101 58.6709 43.8446Z" fill="black"/>
</g>
<defs>
<clipPath id="clip0_14_2">
<rect width="100" height="100" fill="white"/>
</clipPath>
</defs>
</svg>
