<svg width="100" height="100" viewBox="0 0 100 100" fill="none" xmlns="http://www.w3.org/2000/svg">
<g clip-path="url(#clip0_14_2)">
<path fill-rule="evenodd" clip-rule="evenodd" d="M-71 -133H745V923H-71V-133Z" fill="white"/>
<path d="M18.7595 36.1194H81.516" stroke="black" stroke-width="0.728" stroke-linejoin="bevel"/>
<path d="M18.7595 42.7328H81.516" stroke="black" stroke-width="0.728" stroke-linejoin="bevel"/>
<path d="M18.7595 49.3461H81.516" stroke="black" stroke-width="0.728" stroke-linejoin="bevel"/>
<path d="M18.7595 55.9595H81.516" stroke="black" stroke-width="0.728" stroke-linejoin="bevel"/>
<path d="M18.7595 62.5728H81.516" stroke="black" stroke-width="0.728" stroke-linejoin="bevel"/>
<path d="M34.8299 61.4072C34.3008 61.5146 33.8007 61.5684 33.2964 61.5684C29.5144 61.5684 26.2863 58.923 26.2863 54.9261C26.2863 51.7021 28.5596 48.817 30.8908 46.8041C31.3372 46.4073 31.763 46.0394 32.1598 45.6426C32.3954 47.0686 32.5813 48.3128 32.7673 49.3998C30.3576 50.1149 28.7208 52.6528 28.7208 55.141C28.7208 56.9928 30.1758 59.5306 32.292 59.5306C32.5028 59.5306 32.7426 59.4232 32.7426 59.1876C32.7426 58.9478 32.478 58.8156 32.1598 58.6048C31.1264 57.9682 30.5436 57.2821 30.5436 55.9842C30.5436 54.3722 31.734 53.0744 33.2964 52.7065L34.8299 61.4072ZM32.5028 34.214C32.7426 33.1558 33.9577 30.3782 35.3342 30.3782C35.731 30.3782 36.3634 31.672 36.3634 33.4989C36.3634 36.2517 34.3298 38.3142 32.5028 40.1122C32.3458 39.0541 32.2135 38.0249 32.2135 36.913C32.2135 35.9334 32.292 35.0324 32.5028 34.214ZM38.5871 56.5133C38.5871 58.394 37.8183 60.3242 35.9417 61.0931C35.3879 57.9186 34.6728 53.7109 34.4868 52.5453C36.8676 52.5453 38.5871 54.1614 38.5871 56.5133ZM26.9476 69.5292C26.9476 71.2776 28.2951 73.5799 31.8663 73.5799C33.1104 73.5799 34.1975 73.2616 35.1481 72.6788C36.5783 71.6744 36.9461 69.926 36.9461 68.2602C36.9461 67.231 36.7891 66.0406 36.5246 64.532C36.446 64.0029 36.2848 63.2093 36.1278 62.176C38.7193 61.3287 40.6496 58.6296 40.6496 55.9057C40.6496 51.9129 37.8183 49.2138 33.9577 49.2138C33.6932 47.6266 33.4287 46.0642 33.189 44.5845C35.9955 41.6457 37.9257 38.339 37.9257 34.1354C37.9257 31.7257 37.1859 29.7706 36.7602 28.8159C36.1278 27.4684 35.3589 26.5425 34.8836 26.5425C34.6976 26.5425 33.8792 26.8608 33.0071 27.8901C31.3124 29.9029 30.8371 33.2881 30.8371 35.5077C30.8371 36.9378 30.9694 38.2357 31.4199 41.1993C31.3909 41.2241 30.0146 42.6253 29.4607 43.0758C27.051 45.3244 23.7195 48.5236 23.7195 53.8184C23.7195 58.7619 28.0306 62.6513 32.9534 62.6513C33.718 62.6513 34.4331 62.5728 35.0407 62.4653C35.5449 65.0073 35.8343 66.859 35.8343 68.2602C35.8343 71.0131 34.4331 72.468 31.763 72.468C31.1264 72.468 30.5726 72.3357 30.5188 72.3357C30.494 72.3068 30.4403 72.282 30.4403 72.2572C30.4403 72.2035 30.494 72.1745 30.5726 72.1497C31.8167 71.9637 33.0567 70.9056 33.0567 69.2151C33.0567 67.7849 31.9737 66.2762 29.9897 66.2762C28.138 66.2762 26.9476 67.7849 26.9476 69.5292Z" fill="black"/>
<path d="M80.9208 35.7557V62.9365" stroke="black" stroke-width="1.18933" stroke-linejoin="bevel"/>
<path d="M52.6281 63.9202L54.9841 63.4449V67.8097L52.6281 68.314V63.9202ZM56.7284 63.1018C56.8896 63.077 57.0218 62.891 57.0218 62.7298V61.1716C57.0218 60.9608 56.8606 60.7996 56.6498 60.7996H56.5961L55.724 60.9856V57.0424H54.9841V61.1426L52.6281 61.6221V57.8897H51.8882V61.7792L50.8549 61.99C50.6978 62.0189 50.5656 62.2008 50.5656 62.362V63.8954C50.5656 64.1062 50.7226 64.2674 50.9376 64.2674H51.0161L51.8882 64.0814V68.4462L50.8549 68.657C50.6978 68.6819 50.5656 68.8678 50.5656 69.0291V70.5625C50.5656 70.7733 50.7226 70.9304 50.9376 70.9304H51.0161L51.8882 70.7485V74.6876H52.6281V70.5873L54.9841 70.112V73.8444H55.724V69.9549L56.7284 69.7689C56.8896 69.74 57.0218 69.5581 57.0218 69.3969V67.8386C57.0218 67.6237 56.8606 67.4666 56.6498 67.4666H56.5961L55.724 67.6526V63.2878L56.7284 63.1018Z" fill="black"/>
<path d="M60.7334 57.307L63.0894 56.8316V61.1964L60.7334 61.7007V57.307ZM64.8337 56.4886C64.9949 56.4637 65.1272 56.2778 65.1272 56.1165V54.5583C65.1272 54.3475 64.966 54.1863 64.7552 54.1863H64.7014L63.8293 54.3723V50.4291H63.0894V54.5293L60.7334 55.0088V51.2764H59.9936V55.1659L58.9602 55.3767C58.8032 55.4056 58.6709 55.5875 58.6709 55.7487V57.2822C58.6709 57.493 58.828 57.6542 59.0429 57.6542H59.1214L59.9936 57.4682V61.833L58.9602 62.0438C58.8032 62.0686 58.6709 62.2546 58.6709 62.4158V63.9492C58.6709 64.16 58.828 64.3171 59.0429 64.3171H59.1214L59.9936 64.1352V68.0743H60.7334V63.974L63.0894 63.4987V67.2311H63.8293V63.3416L64.8337 63.1556C64.9949 63.1267 65.1272 62.9448 65.1272 62.7836V61.2254C65.1272 61.0104 64.966 60.8534 64.7552 60.8534H64.7014L63.8293 61.0394V56.6746L64.8337 56.4886Z" fill="black"/>
<path d="M64.5941 69.1862H77.552" stroke="black" stroke-width="1.05867" stroke-linejoin="bevel"/>
<path d="M75.0432 71.4347V27.8528" stroke="black" stroke-width="0.661333" stroke-linejoin="bevel"/>
<path d="M66.7765 73.6047C66.7765 74.7413 67.5949 76.0103 69.7401 76.0103C72.4888 76.0103 75.3738 73.7617 75.3738 71.4346C75.3738 69.8722 74.0512 69.0001 72.4102 69.0001C69.8434 69.0001 66.7765 71.1701 66.7765 73.6047Z" fill="black"/>
<path d="M66.7765 66.9912C66.7765 68.1279 67.5949 69.3969 69.7401 69.3969C72.4888 69.3969 75.3738 67.1483 75.3738 64.8212C75.3738 63.2588 74.0512 62.3867 72.4102 62.3867C69.8434 62.3867 66.7765 64.5567 66.7765 66.9912Z" fill="black"/>
<path d="M66.7765 60.378C66.7765 61.5146 67.5949 62.7836 69.7401 62.7836C72.4888 62.7836 75.3738 60.535 75.3738 58.208C75.3738 56.6456 74.0512 55.7734 72.4102 55.7734C69.8434 55.7734 66.7765 57.9434 66.7765 60.378Z" fill="black"/>
<path d="M66.7765 53.7647C66.7765 54.9014 67.5949 56.1703 69.7401 56.1703C72.4888 56.1703 75.3738 53.9218 75.3738 51.5947C75.3738 50.0323 74.0512 49.1602 72.4102 49.1602C69.8434 49.1602 66.7765 51.3302 66.7765 53.7647Z" fill="black"/>
<path d="M66.7765 47.1513C66.7765 48.2879 67.5949 49.5569 69.7401 49.5569C72.4888 49.5569 75.3738 47.3083 75.3738 44.9813C75.3738 43.4189 74.0512 42.5468 72.4102 42.5468C69.8434 42.5468 66.7765 44.7167 66.7765 47.1513Z" fill="black"/>
</g>
<defs>
<clipPath id="clip0_14_2">
<rect width="100" height="100" fill="white"/>
</clipPath>
</defs>
</svg>
