<svg width="100" height="100" viewBox="0 0 100 100" fill="none" xmlns="http://www.w3.org/2000/svg">
<g clip-path="url(#clip0_14_2)">
<path fill-rule="evenodd" clip-rule="evenodd" d="M-71 -133H745V923H-71V-133Z" fill="white"/>
<path d="M18.7595 36.1194H81.516" stroke="black" stroke-width="0.728" stroke-linejoin="bevel"/>
<path d="M18.7595 42.7328H81.516" stroke="black" stroke-width="0.728" stroke-linejoin="bevel"/>
<path d="M18.7595 49.3461H81.516" stroke="black" stroke-width="0.728" stroke-linejoin="bevel"/>
<path d="M18.7595 55.9595H81.516" stroke="black" stroke-width="0.728" stroke-linejoin="bevel"/>
<path d="M18.7595 62.5728H81.516" stroke="black" stroke-width="0.728" stroke-linejoin="bevel"/>
<path d="M34.8299 61.4072C34.3008 61.5146 33.8007 61.5684 33.2964 61.5684C29.5144 61.5684 26.2863 58.923 26.2863 54.9261C26.2863 51.7021 28.5596 48.817 30.8908 46.8041C31.3372 46.4073 31.763 46.0394 32.1598 45.6426C32.3954 47.0686 32.5813 48.3128 32.7673 49.3998C30.3576 50.1149 28.7208 52.6528 28.7208 55.141C28.7208 56.9928 30.1758 59.5306 32.292 59.5306C32.5028 59.5306 32.7426 59.4232 32.7426 59.1876C32.7426 58.9478 32.478 58.8156 32.1598 58.6048C31.1264 57.9682 30.5436 57.2821 30.5436 55.9842C30.5436 54.3722 31.734 53.0744 33.2964 52.7065L34.8299 61.4072ZM32.5028 34.214C32.7426 33.1558 33.9577 30.3782 35.3342 30.3782C35.731 30.3782 36.3634 31.672 36.3634 33.4989C36.3634 36.2517 34.3298 38.3142 32.5028 40.1122C32.3458 39.0541 32.2135 38.0249 32.2135 36.913C32.2135 35.9334 32.292 35.0324 32.5028 34.214ZM38.5871 56.5133C38.5871 58.394 37.8183 60.3242 35.9417 61.0931C35.3879 57.9186 34.6728 53.7109 34.4868 52.5453C36.8676 52.5453 38.5871 54.1614 38.5871 56.5133ZM26.9476 69.5292C26.9476 71.2776 28.2951 73.5799 31.8663 73.5799C33.1104 73.5799 34.1975 73.2616 35.1481 72.6788C36.5783 71.6744 36.9461 69.926 36.9461 68.2602C36.9461 67.231 36.7891 66.0406 36.5246 64.532C36.446 64.0029 36.2848 63.2093 36.1278 62.176C38.7193 61.3287 40.6496 58.6296 40.6496 55.9057C40.6496 51.9129 37.8183 49.2138 33.9577 49.2138C33.6932 47.6266 33.4287 46.0642 33.189 44.5845C35.9955 41.6457 37.9257 38.339 37.9257 34.1354C37.9257 31.7257 37.1859 29.7706 36.7602 28.8159C36.1278 27.4684 35.3589 26.5425 34.8836 26.5425C34.6976 26.5425 33.8792 26.8608 33.0071 27.8901C31.3124 29.9029 30.8371 33.2881 30.8371 35.5077C30.8371 36.9378 30.9694 38.2357 31.4199 41.1993C31.3909 41.2241 30.0146 42.6253 29.4607 43.0758C27.051 45.3244 23.7195 48.5236 23.7195 53.8184C23.7195 58.7619 28.0306 62.6513 32.9534 62.6513C33.718 62.6513 34.4331 62.5728 35.0407 62.4653C35.5449 65.0073 35.8343 66.859 35.8343 68.2602C35.8343 71.0131 34.4331 72.468 31.763 72.468C31.1264 72.468 30.5726 72.3357 30.5188 72.3357C30.494 72.3068 30.4403 72.282 30.4403 72.2572C30.4403 72.2035 30.494 72.1745 30.5726 72.1497C31.8167 71.9637 33.0567 70.9056 33.0567 69.2151C33.0567 67.7849 31.9737 66.2762 29.9897 66.2762C28.138 66.2762 26.9476 67.7849 26.9476 69.5292Z" fill="black"/>
<path d="M80.9208 35.7557V62.9365" stroke="black" stroke-width="1.18933" stroke-linejoin="bevel"/>
<path d="M54.0582 61.5147C54.0582 63.6061 52.9712 64.7139 51.4377 65.9332L51.5162 60.7748C51.57 60.5351 51.9668 59.7704 53.0249 59.7704C53.9797 59.7704 54.0582 60.6673 54.0582 61.2253V61.5147ZM53.74 58.4725C52.4173 58.4725 51.6485 59.2909 51.5162 59.4521L51.6237 50.9581C51.6237 50.7474 51.4666 50.5903 51.2517 50.5903H50.9376C50.7226 50.5903 50.5656 50.7474 50.5656 50.9581L50.6978 66.8591C50.6978 67.0699 50.8549 67.227 51.0698 67.227C51.1194 67.227 51.2269 67.2021 51.2806 67.1774C53.554 66.0366 55.9348 63.8707 55.9348 61.1427C55.9348 59.7704 55.3024 58.4725 53.74 58.4725Z" fill="black"/>
<path d="M61.0806 54.9013C61.0806 56.9928 59.9936 58.1005 58.4601 59.3199L58.5386 54.1615C58.5924 53.9217 58.9892 53.1571 60.0473 53.1571C61.0021 53.1571 61.0806 54.054 61.0806 54.612V54.9013ZM60.7624 51.8592C59.4397 51.8592 58.6709 52.6776 58.5386 52.8388L58.6461 44.3448C58.6461 44.134 58.489 43.9769 58.2741 43.9769H57.96C57.745 43.9769 57.588 44.134 57.588 44.3448L57.7202 60.2457C57.7202 60.4565 57.8773 60.6136 58.0922 60.6136C58.1418 60.6136 58.2493 60.5888 58.303 60.564C60.5764 59.4232 62.9572 57.2573 62.9572 54.5293C62.9572 53.1571 62.3248 51.8592 60.7624 51.8592Z" fill="black"/>
<path d="M64.9413 37.2307V79.1061" stroke="black" stroke-width="0.661333" stroke-linejoin="bevel"/>
<path d="M64.6106 63.6847C64.6106 64.8213 65.429 66.0903 67.5742 66.0903C70.3229 66.0903 73.2079 63.8417 73.2079 61.5147C73.2079 59.9523 71.8853 59.0801 70.2443 59.0801C67.6775 59.0801 64.6106 61.2501 64.6106 63.6847Z" fill="black"/>
<path d="M64.6106 57.0713C64.6106 58.208 65.429 59.4769 67.5742 59.4769C70.3229 59.4769 73.2079 57.2284 73.2079 54.9013C73.2079 53.3389 71.8853 52.4668 70.2443 52.4668C67.6775 52.4668 64.6106 54.6368 64.6106 57.0713Z" fill="black"/>
<path d="M64.6106 50.458C64.6106 51.5946 65.429 52.8636 67.5742 52.8636C70.3229 52.8636 73.2079 50.615 73.2079 48.288C73.2079 46.7256 71.8853 45.8535 70.2443 45.8535C67.6775 45.8535 64.6106 48.0234 64.6106 50.458Z" fill="black"/>
<path d="M64.6106 43.8446C64.6106 44.9813 65.429 46.2502 67.5742 46.2502C70.3229 46.2502 73.2079 44.0017 73.2079 41.6746C73.2079 40.1122 71.8853 39.2401 70.2443 39.2401C67.6775 39.2401 64.6106 41.4101 64.6106 43.8446Z" fill="black"/>
<path d="M64.6106 37.2313C64.6106 38.368 65.429 39.6369 67.5742 39.6369C70.3229 39.6369 73.2079 37.3884 73.2079 35.0613C73.2079 33.4989 71.8853 32.6268 70.2443 32.6268C67.6775 32.6268 64.6106 34.7968 64.6106 37.2313Z" fill="black"/>
</g>
<defs>
<clipPath id="clip0_14_2">
<rect width="100" height="100" fill="white"/>
</clipPath>
</defs>
</svg>
