<svg width="100" height="100" viewBox="0 0 100 100" fill="none" xmlns="http://www.w3.org/2000/svg">
<g clip-path="url(#clip0_14_2)">
<path fill-rule="evenodd" clip-rule="evenodd" d="M-71 -133H745V923H-71V-133Z" fill="white"/>
<path d="M18.7595 36.1194H81.516" stroke="black" stroke-width="0.728" stroke-linejoin="bevel"/>
<path d="M18.7595 42.7328H81.516" stroke="black" stroke-width="0.728" stroke-linejoin="bevel"/>
<path d="M18.7595 49.3461H81.516" stroke="black" stroke-width="0.728" stroke-linejoin="bevel"/>
<path d="M18.7595 55.9595H81.516" stroke="black" stroke-width="0.728" stroke-linejoin="bevel"/>
<path d="M18.7595 62.5728H81.516" stroke="black" stroke-width="0.728" stroke-linejoin="bevel"/>
<path d="M34.8299 61.4072C34.3008 61.5146 33.8007 61.5684 33.2964 61.5684C29.5144 61.5684 26.2863 58.923 26.2863 54.9261C26.2863 51.7021 28.5596 48.817 30.8908 46.8041C31.3372 46.4073 31.763 46.0394 32.1598 45.6426C32.3954 47.0686 32.5813 48.3128 32.7673 49.3998C30.3576 50.1149 28.7208 52.6528 28.7208 55.141C28.7208 56.9928 30.1758 59.5306 32.292 59.5306C32.5028 59.5306 32.7426 59.4232 32.7426 59.1876C32.7426 58.9478 32.478 58.8156 32.1598 58.6048C31.1264 57.9682 30.5436 57.2821 30.5436 55.9842C30.5436 54.3722 31.734 53.0744 33.2964 52.7065L34.8299 61.4072ZM32.5028 34.214C32.7426 33.1558 33.9577 30.3782 35.3342 30.3782C35.731 30.3782 36.3634 31.672 36.3634 33.4989C36.3634 36.2517 34.3298 38.3142 32.5028 40.1122C32.3458 39.0541 32.2135 38.0249 32.2135 36.913C32.2135 35.9334 32.292 35.0324 32.5028 34.214ZM38.5871 56.5133C38.5871 58.394 37.8183 60.3242 35.9417 61.0931C35.3879 57.9186 34.6728 53.7109 34.4868 52.5453C36.8676 52.5453 38.5871 54.1614 38.5871 56.5133ZM26.9476 69.5292C26.9476 71.2776 28.2951 73.5799 31.8663 73.5799C33.1104 73.5799 34.1975 73.2616 35.1481 72.6788C36.5783 71.6744 36.9461 69.926 36.9461 68.2602C36.9461 67.231 36.7891 66.0406 36.5246 64.532C36.446 64.0029 36.2848 63.2093 36.1278 62.176C38.7193 61.3287 40.6496 58.6296 40.6496 55.9057C40.6496 51.9129 37.8183 49.2138 33.9577 49.2138C33.6932 47.6266 33.4287 46.0642 33.189 44.5845C35.9955 41.6457 37.9257 38.339 37.9257 34.1354C37.9257 31.7257 37.1859 29.7706 36.7602 28.8159C36.1278 27.4684 35.3589 26.5425 34.8836 26.5425C34.6976 26.5425 33.8792 26.8608 33.0071 27.8901C31.3124 29.9029 30.8371 33.2881 30.8371 35.5077C30.8371 36.9378 30.9694 38.2357 31.4199 41.1993C31.3909 41.2241 30.0146 42.6253 29.4607 43.0758C27.051 45.3244 23.7195 48.5236 23.7195 53.8184C23.7195 58.7619 28.0306 62.6513 32.9534 62.6513C33.718 62.6513 34.4331 62.5728 35.0407 62.4653C35.5449 65.0073 35.8343 66.859 35.8343 68.2602C35.8343 71.0131 34.4331 72.468 31.763 72.468C31.1264 72.468 30.5726 72.3357 30.5188 72.3357C30.494 72.3068 30.4403 72.282 30.4403 72.2572C30.4403 72.2035 30.494 72.1745 30.5726 72.1497C31.8167 71.9637 33.0567 70.9056 33.0567 69.2151C33.0567 67.7849 31.9737 66.2762 29.9897 66.2762C28.138 66.2762 26.9476 67.7849 26.9476 69.5292Z" fill="black"/>
<path d="M80.9208 35.7557V62.9365" stroke="black" stroke-width="1.18933" stroke-linejoin="bevel"/>
<path d="M54.0582 38.368C54.0582 40.4595 52.9712 41.5672 51.4377 42.7865L51.5162 37.6281C51.57 37.3884 51.9668 36.6237 53.0249 36.6237C53.9797 36.6237 54.0582 37.5207 54.0582 38.0787V38.368ZM53.74 35.3259C52.4173 35.3259 51.6485 36.1443 51.5162 36.3055L51.6237 27.8115C51.6237 27.6007 51.4666 27.4436 51.2517 27.4436H50.9376C50.7226 27.4436 50.5656 27.6007 50.5656 27.8115L50.6978 43.7124C50.6978 43.9232 50.8549 44.0803 51.0698 44.0803C51.1194 44.0803 51.2269 44.0555 51.2806 44.0307C53.554 42.8899 55.9348 40.724 55.9348 37.996C55.9348 36.6237 55.3024 35.3259 53.74 35.3259Z" fill="black"/>
<path d="M57.9186 33.924V75.7994" stroke="black" stroke-width="0.661333" stroke-linejoin="bevel"/>
<path d="M57.588 60.378C57.588 61.5146 58.4064 62.7836 60.5516 62.7836C63.3003 62.7836 66.1853 60.535 66.1853 58.208C66.1853 56.6456 64.8627 55.7734 63.2218 55.7734C60.655 55.7734 57.588 57.9434 57.588 60.378Z" fill="black"/>
<path d="M57.588 53.7647C57.588 54.9014 58.4064 56.1703 60.5516 56.1703C63.3003 56.1703 66.1853 53.9218 66.1853 51.5947C66.1853 50.0323 64.8627 49.1602 63.2218 49.1602C60.655 49.1602 57.588 51.3302 57.588 53.7647Z" fill="black"/>
<path d="M57.588 47.1513C57.588 48.288 58.4064 49.5569 60.5516 49.5569C63.3003 49.5569 66.1853 47.3084 66.1853 44.9813C66.1853 43.4189 64.8627 42.5468 63.2218 42.5468C60.655 42.5468 57.588 44.7168 57.588 47.1513Z" fill="black"/>
<path d="M57.588 40.538C57.588 41.6747 58.4064 42.9436 60.5516 42.9436C63.3003 42.9436 66.1853 40.6951 66.1853 38.368C66.1853 36.8056 64.8627 35.9335 63.2218 35.9335C60.655 35.9335 57.588 38.1035 57.588 40.538Z" fill="black"/>
<path d="M57.588 33.9246C57.588 35.0613 58.4064 36.3302 60.5516 36.3302C63.3003 36.3302 66.1853 34.0817 66.1853 31.7546C66.1853 30.1922 64.8627 29.3201 63.2218 29.3201C60.655 29.3201 57.588 31.4901 57.588 33.9246Z" fill="black"/>
</g>
<defs>
<clipPath id="clip0_14_2">
<rect width="100" height="100" fill="white"/>
</clipPath>
</defs>
</svg>
