<svg width="100" height="100" viewBox="0 0 100 100" fill="none" xmlns="http://www.w3.org/2000/svg">
<g clip-path="url(#clip0_14_2)">
<path fill-rule="evenodd" clip-rule="evenodd" d="M-71 -133H745V923H-71V-133Z" fill="white"/>
<path d="M18.7595 36.1194H81.516" stroke="black" stroke-width="0.728" stroke-linejoin="bevel"/>
<path d="M18.7595 42.7328H81.516" stroke="black" stroke-width="0.728" stroke-linejoin="bevel"/>
<path d="M18.7595 49.3461H81.516" stroke="black" stroke-width="0.728" stroke-linejoin="bevel"/>
<path d="M18.7595 55.9595H81.516" stroke="black" stroke-width="0.728" stroke-linejoin="bevel"/>
<path d="M18.7595 62.5728H81.516" stroke="black" stroke-width="0.728" stroke-linejoin="bevel"/>
<path d="M34.8299 61.4072C34.3008 61.5146 33.8007 61.5684 33.2964 61.5684C29.5144 61.5684 26.2863 58.923 26.2863 54.9261C26.2863 51.7021 28.5596 48.817 30.8908 46.8041C31.3372 46.4073 31.763 46.0394 32.1598 45.6426C32.3954 47.0686 32.5813 48.3128 32.7673 49.3998C30.3576 50.1149 28.7208 52.6528 28.7208 55.141C28.7208 56.9928 30.1758 59.5306 32.292 59.5306C32.5028 59.5306 32.7426 59.4232 32.7426 59.1876C32.7426 58.9478 32.478 58.8156 32.1598 58.6048C31.1264 57.9682 30.5436 57.2821 30.5436 55.9842C30.5436 54.3722 31.734 53.0744 33.2964 52.7065L34.8299 61.4072ZM32.5028 34.214C32.7426 33.1558 33.9577 30.3782 35.3342 30.3782C35.731 30.3782 36.3634 31.672 36.3634 33.4989C36.3634 36.2517 34.3298 38.3142 32.5028 40.1122C32.3458 39.0541 32.2135 38.0249 32.2135 36.913C32.2135 35.9334 32.292 35.0324 32.5028 34.214ZM38.5871 56.5133C38.5871 58.394 37.8183 60.3242 35.9417 61.0931C35.3879 57.9186 34.6728 53.7109 34.4868 52.5453C36.8676 52.5453 38.5871 54.1614 38.5871 56.5133ZM26.9476 69.5292C26.9476 71.2776 28.2951 73.5799 31.8663 73.5799C33.1104 73.5799 34.1975 73.2616 35.1481 72.6788C36.5783 71.6744 36.9461 69.926 36.9461 68.2602C36.9461 67.231 36.7891 66.0406 36.5246 64.532C36.446 64.0029 36.2848 63.2093 36.1278 62.176C38.7193 61.3287 40.6496 58.6296 40.6496 55.9057C40.6496 51.9129 37.8183 49.2138 33.9577 49.2138C33.6932 47.6266 33.4287 46.0642 33.189 44.5845C35.9955 41.6457 37.9257 38.339 37.9257 34.1354C37.9257 31.7257 37.1859 29.7706 36.7602 28.8159C36.1278 27.4684 35.3589 26.5425 34.8836 26.5425C34.6976 26.5425 33.8792 26.8608 33.0071 27.8901C31.3124 29.9029 30.8371 33.2881 30.8371 35.5077C30.8371 36.9378 30.9694 38.2357 31.4199 41.1993C31.3909 41.2241 30.0146 42.6253 29.4607 43.0758C27.051 45.3244 23.7195 48.5236 23.7195 53.8184C23.7195 58.7619 28.0306 62.6513 32.9534 62.6513C33.718 62.6513 34.4331 62.5728 35.0407 62.4653C35.5449 65.0073 35.8343 66.859 35.8343 68.2602C35.8343 71.0131 34.4331 72.468 31.763 72.468C31.1264 72.468 30.5726 72.3357 30.5188 72.3357C30.494 72.3068 30.4403 72.282 30.4403 72.2572C30.4403 72.2035 30.494 72.1745 30.5726 72.1497C31.8167 71.9637 33.0567 70.9056 33.0567 69.2151C33.0567 67.7849 31.9737 66.2762 29.9897 66.2762C28.138 66.2762 26.9476 67.7849 26.9476 69.5292Z" fill="black"/>
<path d="M80.9208 35.7557V62.9365" stroke="black" stroke-width="1.18933" stroke-linejoin="bevel"/>
<path d="M62.1636 61.5147C62.1636 63.6061 61.0765 64.7139 59.543 65.9332L59.6216 60.7748C59.6753 60.5351 60.0721 59.7704 61.1302 59.7704C62.085 59.7704 62.1636 60.6673 62.1636 61.2253V61.5147ZM61.8453 58.4725C60.5226 58.4725 59.7538 59.2909 59.6216 59.4521L59.729 50.9581C59.729 50.7474 59.572 50.5903 59.357 50.5903H59.0429C58.828 50.5903 58.6709 50.7474 58.6709 50.9581L58.8032 66.8591C58.8032 67.0699 58.9602 67.227 59.1752 67.227C59.2248 67.227 59.3322 67.2021 59.386 67.1774C61.6593 66.0366 64.0401 63.8707 64.0401 61.1427C64.0401 59.7704 63.4077 58.4725 61.8453 58.4725Z" fill="black"/>
<path d="M52.6281 54.0003L54.9841 53.5249V57.8897L52.6281 58.394V54.0003ZM56.7284 53.1819C56.8896 53.157 57.0218 52.971 57.0218 52.8098V51.2516C57.0218 51.0408 56.8606 50.8796 56.6498 50.8796H56.5961L55.724 51.0656V47.1224H54.9841V51.2226L52.6281 51.7021V47.9697H51.8882V51.8592L50.8549 52.07C50.6978 52.0989 50.5656 52.2808 50.5656 52.442V53.9755C50.5656 54.1863 50.7226 54.3475 50.9376 54.3475H51.0161L51.8882 54.1615V58.5263L50.8549 58.7371C50.6978 58.7619 50.5656 58.9479 50.5656 59.1091V60.6425C50.5656 60.8533 50.7226 61.0104 50.9376 61.0104H51.0161L51.8882 60.8285V64.7676H52.6281V60.6673L54.9841 60.192V63.9244H55.724V60.0349L56.7284 59.8489C56.8896 59.82 57.0218 59.6381 57.0218 59.4769V57.9187C57.0218 57.7037 56.8606 57.5467 56.6498 57.5467H56.5961L55.724 57.7327V53.3679L56.7284 53.1819Z" fill="black"/>
<path d="M62.1636 41.6747C62.1636 43.7661 61.0765 44.8739 59.543 46.0932L59.6216 40.9348C59.6753 40.6951 60.0721 39.9304 61.1302 39.9304C62.085 39.9304 62.1636 40.8273 62.1636 41.3853V41.6747ZM61.8453 38.6325C60.5226 38.6325 59.7538 39.4509 59.6216 39.6121L59.729 31.1181C59.729 30.9073 59.572 30.7502 59.357 30.7502H59.0429C58.828 30.7502 58.6709 30.9073 58.6709 31.1181L58.8032 47.019C58.8032 47.2299 58.9602 47.3869 59.1752 47.3869C59.2248 47.3869 59.3322 47.3621 59.386 47.3373C61.6593 46.1965 64.0401 44.0307 64.0401 41.3027C64.0401 39.9304 63.4077 38.6325 61.8453 38.6325Z" fill="black"/>
<path d="M63.5111 69.1861H76.469" stroke="black" stroke-width="1.05867" stroke-linejoin="bevel"/>
<path d="M73.9602 68.128V26.1995" stroke="black" stroke-width="0.661333" stroke-linejoin="bevel"/>
<path d="M65.6936 70.298C65.6936 71.4347 66.512 72.7036 68.6572 72.7036C71.4059 72.7036 74.2909 70.4551 74.2909 68.128C74.2909 66.5656 72.9683 65.6935 71.3273 65.6935C68.7606 65.6935 65.6936 67.8635 65.6936 70.298Z" fill="black"/>
<path d="M65.6936 63.6847C65.6936 64.8213 66.512 66.0903 68.6572 66.0903C71.4059 66.0903 74.2909 63.8417 74.2909 61.5147C74.2909 59.9523 72.9683 59.0801 71.3273 59.0801C68.7606 59.0801 65.6936 61.2501 65.6936 63.6847Z" fill="black"/>
<path d="M65.6936 57.0713C65.6936 58.208 66.512 59.4769 68.6572 59.4769C71.4059 59.4769 74.2909 57.2284 74.2909 54.9013C74.2909 53.3389 72.9683 52.4668 71.3273 52.4668C68.7606 52.4668 65.6936 54.6368 65.6936 57.0713Z" fill="black"/>
<path d="M65.6936 50.458C65.6936 51.5946 66.512 52.8636 68.6572 52.8636C71.4059 52.8636 74.2909 50.615 74.2909 48.288C74.2909 46.7256 72.9683 45.8535 71.3273 45.8535C68.7606 45.8535 65.6936 48.0234 65.6936 50.458Z" fill="black"/>
<path d="M65.6936 43.8446C65.6936 44.9813 66.512 46.2502 68.6572 46.2502C71.4059 46.2502 74.2909 44.0017 74.2909 41.6746C74.2909 40.1122 72.9683 39.2401 71.3273 39.2401C68.7606 39.2401 65.6936 41.4101 65.6936 43.8446Z" fill="black"/>
</g>
<defs>
<clipPath id="clip0_14_2">
<rect width="100" height="100" fill="white"/>
</clipPath>
</defs>
</svg>
