<svg width="100" height="100" viewBox="0 0 100 100" fill="none" xmlns="http://www.w3.org/2000/svg">
<g clip-path="url(#clip0_14_2)">
<path fill-rule="evenodd" clip-rule="evenodd" d="M-71 -133H745V923H-71V-133Z" fill="white"/>
<path d="M18.7595 36.1194H81.516" stroke="black" stroke-width="0.728" stroke-linejoin="bevel"/>
<path d="M18.7595 42.7328H81.516" stroke="black" stroke-width="0.728" stroke-linejoin="bevel"/>
<path d="M18.7595 49.3461H81.516" stroke="black" stroke-width="0.728" stroke-linejoin="bevel"/>
<path d="M18.7595 55.9595H81.516" stroke="black" stroke-width="0.728" stroke-linejoin="bevel"/>
<path d="M18.7595 62.5728H81.516" stroke="black" stroke-width="0.728" stroke-linejoin="bevel"/>
<path d="M34.8299 61.4072C34.3008 61.5146 33.8007 61.5684 33.2964 61.5684C29.5144 61.5684 26.2863 58.923 26.2863 54.9261C26.2863 51.7021 28.5596 48.817 30.8908 46.8041C31.3372 46.4073 31.763 46.0394 32.1598 45.6426C32.3954 47.0686 32.5813 48.3128 32.7673 49.3998C30.3576 50.1149 28.7208 52.6528 28.7208 55.141C28.7208 56.9928 30.1758 59.5306 32.292 59.5306C32.5028 59.5306 32.7426 59.4232 32.7426 59.1876C32.7426 58.9478 32.478 58.8156 32.1598 58.6048C31.1264 57.9682 30.5436 57.2821 30.5436 55.9842C30.5436 54.3722 31.734 53.0744 33.2964 52.7065L34.8299 61.4072ZM32.5028 34.214C32.7426 33.1558 33.9577 30.3782 35.3342 30.3782C35.731 30.3782 36.3634 31.672 36.3634 33.4989C36.3634 36.2517 34.3298 38.3142 32.5028 40.1122C32.3458 39.0541 32.2135 38.0249 32.2135 36.913C32.2135 35.9334 32.292 35.0324 32.5028 34.214ZM38.5871 56.5133C38.5871 58.394 37.8183 60.3242 35.9417 61.0931C35.3879 57.9186 34.6728 53.7109 34.4868 52.5453C36.8676 52.5453 38.5871 54.1614 38.5871 56.5133ZM26.9476 69.5292C26.9476 71.2776 28.2951 73.5799 31.8663 73.5799C33.1104 73.5799 34.1975 73.2616 35.1481 72.6788C36.5783 71.6744 36.9461 69.926 36.9461 68.2602C36.9461 67.231 36.7891 66.0406 36.5246 64.532C36.446 64.0029 36.2848 63.2093 36.1278 62.176C38.7193 61.3287 40.6496 58.6296 40.6496 55.9057C40.6496 51.9129 37.8183 49.2138 33.9577 49.2138C33.6932 47.6266 33.4287 46.0642 33.189 44.5845C35.9955 41.6457 37.9257 38.339 37.9257 34.1354C37.9257 31.7257 37.1859 29.7706 36.7602 28.8159C36.1278 27.4684 35.3589 26.5425 34.8836 26.5425C34.6976 26.5425 33.8792 26.8608 33.0071 27.8901C31.3124 29.9029 30.8371 33.2881 30.8371 35.5077C30.8371 36.9378 30.9694 38.2357 31.4199 41.1993C31.3909 41.2241 30.0146 42.6253 29.4607 43.0758C27.051 45.3244 23.7195 48.5236 23.7195 53.8184C23.7195 58.7619 28.0306 62.6513 32.9534 62.6513C33.718 62.6513 34.4331 62.5728 35.0407 62.4653C35.5449 65.0073 35.8343 66.859 35.8343 68.2602C35.8343 71.0131 34.4331 72.468 31.763 72.468C31.1264 72.468 30.5726 72.3357 30.5188 72.3357C30.494 72.3068 30.4403 72.282 30.4403 72.2572C30.4403 72.2035 30.494 72.1745 30.5726 72.1497C31.8167 71.9637 33.0567 70.9056 33.0567 69.2151C33.0567 67.7849 31.9737 66.2762 29.9897 66.2762C28.138 66.2762 26.9476 67.7849 26.9476 69.5292Z" fill="black"/>
<path d="M80.9208 35.7557V62.9365" stroke="black" stroke-width="1.18933" stroke-linejoin="bevel"/>
<path d="M61.0806 51.5946C61.0806 53.6861 59.9936 54.7938 58.4601 56.0132L58.5386 50.8548C58.5924 50.615 58.9892 49.8504 60.0473 49.8504C61.0021 49.8504 61.0806 50.7473 61.0806 51.3053V51.5946ZM60.7624 48.5525C59.4397 48.5525 58.6709 49.3709 58.5386 49.5321L58.6461 41.0381C58.6461 40.8273 58.489 40.6702 58.2741 40.6702H57.96C57.745 40.6702 57.588 40.8273 57.588 41.0381L57.7202 56.939C57.7202 57.1498 57.8773 57.3069 58.0922 57.3069C58.1418 57.3069 58.2493 57.2821 58.303 57.2573C60.5764 56.1165 62.9572 53.9506 62.9572 51.2226C62.9572 49.8504 62.3248 48.5525 60.7624 48.5525Z" fill="black"/>
<path d="M54.0582 38.368C54.0582 40.4595 52.9712 41.5672 51.4377 42.7865L51.5162 37.6281C51.57 37.3884 51.9668 36.6237 53.0249 36.6237C53.9797 36.6237 54.0582 37.5207 54.0582 38.0787V38.368ZM53.74 35.3259C52.4173 35.3259 51.6485 36.1443 51.5162 36.3055L51.6237 27.8115C51.6237 27.6007 51.4666 27.4436 51.2517 27.4436H50.9376C50.7226 27.4436 50.5656 27.6007 50.5656 27.8115L50.6978 43.7124C50.6978 43.9232 50.8549 44.0803 51.0698 44.0803C51.1194 44.0803 51.2269 44.0555 51.2806 44.0307C53.554 42.8899 55.9348 40.724 55.9348 37.996C55.9348 36.6237 55.3024 35.3259 53.74 35.3259Z" fill="black"/>
<path d="M61.0806 31.7546C61.0806 33.8461 59.9936 34.9538 58.4601 36.1731L58.5386 31.0147C58.5924 30.775 58.9892 30.0103 60.0473 30.0103C61.0021 30.0103 61.0806 30.9073 61.0806 31.4653V31.7546ZM60.7624 28.7125C59.4397 28.7125 58.6709 29.5309 58.5386 29.6921L58.6461 21.1981C58.6461 20.9873 58.489 20.8302 58.2741 20.8302H57.96C57.745 20.8302 57.588 20.9873 57.588 21.1981L57.7202 37.099C57.7202 37.3098 57.8773 37.4669 58.0922 37.4669C58.1418 37.4669 58.2493 37.4421 58.303 37.4173C60.5764 36.2765 62.9572 34.1106 62.9572 31.3826C62.9572 30.0103 62.3248 28.7125 60.7624 28.7125Z" fill="black"/>
<path d="M64.1477 29.5061H77.1056" stroke="black" stroke-width="1.05867" stroke-linejoin="bevel"/>
<path d="M66.6608 27.3107V70.8395" stroke="black" stroke-width="0.661333" stroke-linejoin="bevel"/>
<path d="M66.3301 53.7647C66.3301 54.9014 67.1485 56.1703 69.2937 56.1703C72.0424 56.1703 74.9274 53.9218 74.9274 51.5947C74.9274 50.0323 73.6047 49.1602 71.9638 49.1602C69.397 49.1602 66.3301 51.3302 66.3301 53.7647Z" fill="black"/>
<path d="M66.3301 47.1513C66.3301 48.288 67.1485 49.5569 69.2937 49.5569C72.0424 49.5569 74.9274 47.3084 74.9274 44.9813C74.9274 43.4189 73.6047 42.5468 71.9638 42.5468C69.397 42.5468 66.3301 44.7168 66.3301 47.1513Z" fill="black"/>
<path d="M66.3301 40.538C66.3301 41.6747 67.1485 42.9436 69.2937 42.9436C72.0424 42.9436 74.9274 40.6951 74.9274 38.368C74.9274 36.8056 73.6047 35.9335 71.9638 35.9335C69.397 35.9335 66.3301 38.1035 66.3301 40.538Z" fill="black"/>
<path d="M66.3301 33.9247C66.3301 35.0613 67.1485 36.3303 69.2937 36.3303C72.0424 36.3303 74.9274 34.0817 74.9274 31.7547C74.9274 30.1923 73.6047 29.3201 71.9638 29.3201C69.397 29.3201 66.3301 31.4901 66.3301 33.9247Z" fill="black"/>
<path d="M66.3301 27.3113C66.3301 28.448 67.1485 29.7169 69.2937 29.7169C72.0424 29.7169 74.9274 27.4684 74.9274 25.1413C74.9274 23.5789 73.6047 22.7068 71.9638 22.7068C69.397 22.7068 66.3301 24.8768 66.3301 27.3113Z" fill="black"/>
</g>
<defs>
<clipPath id="clip0_14_2">
<rect width="100" height="100" fill="white"/>
</clipPath>
</defs>
</svg>
