<svg width="100" height="100" viewBox="0 0 100 100" fill="none" xmlns="http://www.w3.org/2000/svg">
<g clip-path="url(#clip0_14_2)">
<path fill-rule="evenodd" clip-rule="evenodd" d="M-71 -133H745V923H-71V-133Z" fill="white"/>
<path d="M18.7595 36.1194H81.516" stroke="black" stroke-width="0.728" stroke-linejoin="bevel"/>
<path d="M18.7595 42.7328H81.516" stroke="black" stroke-width="0.728" stroke-linejoin="bevel"/>
<path d="M18.7595 49.3461H81.516" stroke="black" stroke-width="0.728" stroke-linejoin="bevel"/>
<path d="M18.7595 55.9595H81.516" stroke="black" stroke-width="0.728" stroke-linejoin="bevel"/>
<path d="M18.7595 62.5728H81.516" stroke="black" stroke-width="0.728" stroke-linejoin="bevel"/>
<path d="M34.8299 61.4072C34.3008 61.5146 33.8007 61.5684 33.2964 61.5684C29.5144 61.5684 26.2863 58.923 26.2863 54.9261C26.2863 51.7021 28.5596 48.817 30.8908 46.8041C31.3372 46.4073 31.763 46.0394 32.1598 45.6426C32.3954 47.0686 32.5813 48.3128 32.7673 49.3998C30.3576 50.1149 28.7208 52.6528 28.7208 55.141C28.7208 56.9928 30.1758 59.5306 32.292 59.5306C32.5028 59.5306 32.7426 59.4232 32.7426 59.1876C32.7426 58.9478 32.478 58.8156 32.1598 58.6048C31.1264 57.9682 30.5436 57.2821 30.5436 55.9842C30.5436 54.3722 31.734 53.0744 33.2964 52.7065L34.8299 61.4072ZM32.5028 34.214C32.7426 33.1558 33.9577 30.3782 35.3342 30.3782C35.731 30.3782 36.3634 31.672 36.3634 33.4989C36.3634 36.2517 34.3298 38.3142 32.5028 40.1122C32.3458 39.0541 32.2135 38.0249 32.2135 36.913C32.2135 35.9334 32.292 35.0324 32.5028 34.214ZM38.5871 56.5133C38.5871 58.394 37.8183 60.3242 35.9417 61.0931C35.3879 57.9186 34.6728 53.7109 34.4868 52.5453C36.8676 52.5453 38.5871 54.1614 38.5871 56.5133ZM26.9476 69.5292C26.9476 71.2776 28.2951 73.5799 31.8663 73.5799C33.1104 73.5799 34.1975 73.2616 35.1481 72.6788C36.5783 71.6744 36.9461 69.926 36.9461 68.2602C36.9461 67.231 36.7891 66.0406 36.5246 64.532C36.446 64.0029 36.2848 63.2093 36.1278 62.176C38.7193 61.3287 40.6496 58.6296 40.6496 55.9057C40.6496 51.9129 37.8183 49.2138 33.9577 49.2138C33.6932 47.6266 33.4287 46.0642 33.189 44.5845C35.9955 41.6457 37.9257 38.339 37.9257 34.1354C37.9257 31.7257 37.1859 29.7706 36.7602 28.8159C36.1278 27.4684 35.3589 26.5425 34.8836 26.5425C34.6976 26.5425 33.8792 26.8608 33.0071 27.8901C31.3124 29.9029 30.8371 33.2881 30.8371 35.5077C30.8371 36.9378 30.9694 38.2357 31.4199 41.1993C31.3909 41.2241 30.0146 42.6253 29.4607 43.0758C27.051 45.3244 23.7195 48.5236 23.7195 53.8184C23.7195 58.7619 28.0306 62.6513 32.9534 62.6513C33.718 62.6513 34.4331 62.5728 35.0407 62.4653C35.5449 65.0073 35.8343 66.859 35.8343 68.2602C35.8343 71.0131 34.4331 72.468 31.763 72.468C31.1264 72.468 30.5726 72.3357 30.5188 72.3357C30.494 72.3068 30.4403 72.282 30.4403 72.2572C30.4403 72.2035 30.494 72.1745 30.5726 72.1497C31.8167 71.9637 33.0567 70.9056 33.0567 69.2151C33.0567 67.7849 31.9737 66.2762 29.9897 66.2762C28.138 66.2762 26.9476 67.7849 26.9476 69.5292Z" fill="black"/>
<path d="M80.9208 35.7557V62.9365" stroke="black" stroke-width="1.18933" stroke-linejoin="bevel"/>
<path d="M68.1033 61.5147C68.1033 63.6061 67.0163 64.7139 65.4828 65.9332L65.5613 60.7748C65.6151 60.5351 66.0119 59.7704 67.07 59.7704C68.0248 59.7704 68.1033 60.6673 68.1033 61.2253V61.5147ZM67.7851 58.4725C66.4624 58.4725 65.6936 59.2909 65.5613 59.4521L65.6688 50.9581C65.6688 50.7474 65.5117 50.5903 65.2968 50.5903H64.9827C64.7677 50.5903 64.6107 50.7474 64.6107 50.9581L64.7429 66.8591C64.7429 67.0699 64.9 67.227 65.1149 67.227C65.1645 67.227 65.272 67.2021 65.3257 67.1774C67.5991 66.0366 69.9799 63.8707 69.9799 61.1427C69.9799 59.7704 69.3475 58.4725 67.7851 58.4725Z" fill="black"/>
<path d="M54.0582 54.9013C54.0582 56.9928 52.9712 58.1005 51.4377 59.3199L51.5162 54.1615C51.57 53.9217 51.9668 53.1571 53.0249 53.1571C53.9797 53.1571 54.0582 54.054 54.0582 54.612V54.9013ZM53.74 51.8592C52.4173 51.8592 51.6485 52.6776 51.5162 52.8388L51.6237 44.3448C51.6237 44.134 51.4666 43.9769 51.2517 43.9769H50.9376C50.7226 43.9769 50.5656 44.134 50.5656 44.3448L50.6978 60.2457C50.6978 60.4565 50.8549 60.6136 51.0698 60.6136C51.1194 60.6136 51.2269 60.5888 51.2806 60.564C53.554 59.4232 55.9348 57.2573 55.9348 54.5293C55.9348 53.1571 55.3024 51.8592 53.74 51.8592Z" fill="black"/>
<path d="M61.0807 48.288C61.0807 50.3795 59.9936 51.4872 58.4601 52.7065L58.5387 47.5481C58.5924 47.3084 58.9892 46.5437 60.0473 46.5437C61.0022 46.5437 61.0807 47.4407 61.0807 47.9987V48.288ZM60.7624 45.2459C59.4397 45.2459 58.6709 46.0642 58.5387 46.2255L58.6461 37.7314C58.6461 37.5207 58.4891 37.3636 58.2741 37.3636H57.96C57.7451 37.3636 57.588 37.5207 57.588 37.7314L57.7203 53.6324C57.7203 53.8432 57.8773 54.0003 58.0923 54.0003C58.1419 54.0003 58.2493 53.9755 58.3031 53.9507C60.5764 52.8099 62.9572 50.644 62.9572 47.916C62.9572 46.5437 62.3248 45.2459 60.7624 45.2459Z" fill="black"/>
<path d="M68.1033 41.6747C68.1033 43.7661 67.0163 44.8739 65.4828 46.0932L65.5613 40.9348C65.6151 40.6951 66.0119 39.9304 67.07 39.9304C68.0248 39.9304 68.1033 40.8273 68.1033 41.3853V41.6747ZM67.7851 38.6325C66.4624 38.6325 65.6936 39.4509 65.5613 39.6121L65.6688 31.1181C65.6688 30.9073 65.5117 30.7502 65.2968 30.7502H64.9827C64.7677 30.7502 64.6107 30.9073 64.6107 31.1181L64.7429 47.019C64.7429 47.2299 64.9 47.3869 65.1149 47.3869C65.1645 47.3869 65.272 47.3621 65.3257 47.3373C67.5991 46.1965 69.9799 44.0307 69.9799 41.3027C69.9799 39.9304 69.3475 38.6325 67.7851 38.6325Z" fill="black"/>
<path d="M79.8997 61.5147V26.1995" stroke="black" stroke-width="0.661333" stroke-linejoin="bevel"/>
<path d="M71.6331 63.6847C71.6331 64.8213 72.4515 66.0903 74.5967 66.0903C77.3453 66.0903 80.2304 63.8417 80.2304 61.5147C80.2304 59.9523 78.9077 59.0801 77.2668 59.0801C74.7 59.0801 71.6331 61.2501 71.6331 63.6847Z" fill="black"/>
<path d="M71.6331 57.0713C71.6331 58.208 72.4515 59.4769 74.5967 59.4769C77.3453 59.4769 80.2304 57.2284 80.2304 54.9013C80.2304 53.3389 78.9077 52.4668 77.2668 52.4668C74.7 52.4668 71.6331 54.6368 71.6331 57.0713Z" fill="black"/>
<path d="M71.6331 50.458C71.6331 51.5946 72.4515 52.8636 74.5967 52.8636C77.3453 52.8636 80.2304 50.615 80.2304 48.288C80.2304 46.7256 78.9077 45.8535 77.2668 45.8535C74.7 45.8535 71.6331 48.0234 71.6331 50.458Z" fill="black"/>
<path d="M71.6331 43.8446C71.6331 44.9813 72.4515 46.2502 74.5967 46.2502C77.3453 46.2502 80.2304 44.0017 80.2304 41.6746C80.2304 40.1122 78.9077 39.2401 77.2668 39.2401C74.7 39.2401 71.6331 41.4101 71.6331 43.8446Z" fill="black"/>
</g>
<defs>
<clipPath id="clip0_14_2">
<rect width="100" height="100" fill="white"/>
</clipPath>
</defs>
</svg>
