<svg width="100" height="100" viewBox="0 0 100 100" fill="none" xmlns="http://www.w3.org/2000/svg">
<g clip-path="url(#clip0_14_2)">
<path fill-rule="evenodd" clip-rule="evenodd" d="M-71 -133H745V923H-71V-133Z" fill="white"/>
<path d="M18.7595 36.1194H81.516" stroke="black" stroke-width="0.728" stroke-linejoin="bevel"/>
<path d="M18.7595 42.7328H81.516" stroke="black" stroke-width="0.728" stroke-linejoin="bevel"/>
<path d="M18.7595 49.3461H81.516" stroke="black" stroke-width="0.728" stroke-linejoin="bevel"/>
<path d="M18.7595 55.9595H81.516" stroke="black" stroke-width="0.728" stroke-linejoin="bevel"/>
<path d="M18.7595 62.5728H81.516" stroke="black" stroke-width="0.728" stroke-linejoin="bevel"/>
<path d="M34.8299 61.4072C34.3008 61.5146 33.8007 61.5684 33.2964 61.5684C29.5144 61.5684 26.2863 58.923 26.2863 54.9261C26.2863 51.7021 28.5596 48.817 30.8908 46.8041C31.3372 46.4073 31.763 46.0394 32.1598 45.6426C32.3954 47.0686 32.5813 48.3128 32.7673 49.3998C30.3576 50.1149 28.7208 52.6528 28.7208 55.141C28.7208 56.9928 30.1758 59.5306 32.292 59.5306C32.5028 59.5306 32.7426 59.4232 32.7426 59.1876C32.7426 58.9478 32.478 58.8156 32.1598 58.6048C31.1264 57.9682 30.5436 57.2821 30.5436 55.9842C30.5436 54.3722 31.734 53.0744 33.2964 52.7065L34.8299 61.4072ZM32.5028 34.214C32.7426 33.1558 33.9577 30.3782 35.3342 30.3782C35.731 30.3782 36.3634 31.672 36.3634 33.4989C36.3634 36.2517 34.3298 38.3142 32.5028 40.1122C32.3458 39.0541 32.2135 38.0249 32.2135 36.913C32.2135 35.9334 32.292 35.0324 32.5028 34.214ZM38.5871 56.5133C38.5871 58.394 37.8183 60.3242 35.9417 61.0931C35.3879 57.9186 34.6728 53.7109 34.4868 52.5453C36.8676 52.5453 38.5871 54.1614 38.5871 56.5133ZM26.9476 69.5292C26.9476 71.2776 28.2951 73.5799 31.8663 73.5799C33.1104 73.5799 34.1975 73.2616 35.1481 72.6788C36.5783 71.6744 36.9461 69.926 36.9461 68.2602C36.9461 67.231 36.7891 66.0406 36.5246 64.532C36.446 64.0029 36.2848 63.2093 36.1278 62.176C38.7193 61.3287 40.6496 58.6296 40.6496 55.9057C40.6496 51.9129 37.8183 49.2138 33.9577 49.2138C33.6932 47.6266 33.4287 46.0642 33.189 44.5845C35.9955 41.6457 37.9257 38.339 37.9257 34.1354C37.9257 31.7257 37.1859 29.7706 36.7602 28.8159C36.1278 27.4684 35.3589 26.5425 34.8836 26.5425C34.6976 26.5425 33.8792 26.8608 33.0071 27.8901C31.3124 29.9029 30.8371 33.2881 30.8371 35.5077C30.8371 36.9378 30.9694 38.2357 31.4199 41.1993C31.3909 41.2241 30.0146 42.6253 29.4607 43.0758C27.051 45.3244 23.7195 48.5236 23.7195 53.8184C23.7195 58.7619 28.0306 62.6513 32.9534 62.6513C33.718 62.6513 34.4331 62.5728 35.0407 62.4653C35.5449 65.0073 35.8343 66.859 35.8343 68.2602C35.8343 71.0131 34.4331 72.468 31.763 72.468C31.1264 72.468 30.5726 72.3357 30.5188 72.3357C30.494 72.3068 30.4403 72.282 30.4403 72.2572C30.4403 72.2035 30.494 72.1745 30.5726 72.1497C31.8167 71.9637 33.0567 70.9056 33.0567 69.2151C33.0567 67.7849 31.9737 66.2762 29.9897 66.2762C28.138 66.2762 26.9476 67.7849 26.9476 69.5292Z" fill="black"/>
<path d="M80.9208 35.7557V62.9365" stroke="black" stroke-width="1.18933" stroke-linejoin="bevel"/>
<path d="M61.0807 51.5946C61.0807 53.6861 59.9936 54.7938 58.4601 56.0132L58.5387 50.8548C58.5924 50.615 58.9892 49.8504 60.0473 49.8504C61.0022 49.8504 61.0807 50.7473 61.0807 51.3053V51.5946ZM60.7624 48.5525C59.4397 48.5525 58.6709 49.3709 58.5387 49.5321L58.6461 41.0381C58.6461 40.8273 58.4891 40.6702 58.2741 40.6702H57.96C57.7451 40.6702 57.588 40.8273 57.588 41.0381L57.7203 56.939C57.7203 57.1498 57.8773 57.3069 58.0923 57.3069C58.1419 57.3069 58.2493 57.2821 58.3031 57.2573C60.5764 56.1165 62.9572 53.9506 62.9572 51.2226C62.9572 49.8504 62.3248 48.5525 60.7624 48.5525Z" fill="black"/>
<path d="M54.0582 44.9813C54.0582 47.0728 52.9712 48.1805 51.4377 49.3998L51.5162 44.2414C51.57 44.0017 51.9668 43.237 53.0249 43.237C53.9797 43.237 54.0582 44.134 54.0582 44.692V44.9813ZM53.74 41.9392C52.4173 41.9392 51.6485 42.7575 51.5162 42.9188L51.6237 34.4247C51.6237 34.214 51.4666 34.0569 51.2517 34.0569H50.9376C50.7226 34.0569 50.5656 34.214 50.5656 34.4247L50.6978 50.3257C50.6978 50.5365 50.8549 50.6936 51.0698 50.6936C51.1194 50.6936 51.2269 50.6688 51.2806 50.644C53.554 49.5032 55.9348 47.3373 55.9348 44.6093C55.9348 43.237 55.3024 41.9392 53.74 41.9392Z" fill="black"/>
<path d="M63.9244 38.368C63.9244 40.4595 62.8373 41.5672 61.3038 42.7865L61.3824 37.6281C61.4361 37.3884 61.8329 36.6237 62.891 36.6237C63.8458 36.6237 63.9244 37.5207 63.9244 38.0787V38.368ZM63.6061 35.3259C62.2834 35.3259 61.5146 36.1443 61.3824 36.3055L61.4898 27.8115C61.4898 27.6007 61.3328 27.4436 61.1178 27.4436H60.8037C60.5888 27.4436 60.4317 27.6007 60.4317 27.8115L60.564 43.7124C60.564 43.9232 60.721 44.0803 60.936 44.0803C60.9856 44.0803 61.093 44.0555 61.1468 44.0307C63.4201 42.8899 65.8009 40.724 65.8009 37.996C65.8009 36.6237 65.1685 35.3259 63.6061 35.3259Z" fill="black"/>
<path d="M67.785 40.5374V70.8395" stroke="black" stroke-width="0.661333" stroke-linejoin="bevel"/>
<path d="M67.4543 53.7647C67.4543 54.9014 68.2727 56.1703 70.4179 56.1703C73.1666 56.1703 76.0517 53.9218 76.0517 51.5947C76.0517 50.0323 74.729 49.1602 73.0881 49.1602C70.5213 49.1602 67.4543 51.3302 67.4543 53.7647Z" fill="black"/>
<path d="M67.4543 47.1513C67.4543 48.288 68.2727 49.5569 70.4179 49.5569C73.1666 49.5569 76.0517 47.3084 76.0517 44.9813C76.0517 43.4189 74.729 42.5468 73.0881 42.5468C70.5213 42.5468 67.4543 44.7168 67.4543 47.1513Z" fill="black"/>
<path d="M67.4543 40.538C67.4543 41.6747 68.2727 42.9436 70.4179 42.9436C73.1666 42.9436 76.0517 40.6951 76.0517 38.368C76.0517 36.8056 74.729 35.9335 73.0881 35.9335C70.5213 35.9335 67.4543 38.1035 67.4543 40.538Z" fill="black"/>
</g>
<defs>
<clipPath id="clip0_14_2">
<rect width="100" height="100" fill="white"/>
</clipPath>
</defs>
</svg>
