<svg width="100" height="100" viewBox="0 0 100 100" fill="none" xmlns="http://www.w3.org/2000/svg">
<g clip-path="url(#clip0_14_2)">
<path fill-rule="evenodd" clip-rule="evenodd" d="M-71 -133H745V923H-71V-133Z" fill="white"/>
<path d="M18.7595 36.1194H81.516" stroke="black" stroke-width="0.728" stroke-linejoin="bevel"/>
<path d="M18.7595 42.7328H81.516" stroke="black" stroke-width="0.728" stroke-linejoin="bevel"/>
<path d="M18.7595 49.3461H81.516" stroke="black" stroke-width="0.728" stroke-linejoin="bevel"/>
<path d="M18.7595 55.9595H81.516" stroke="black" stroke-width="0.728" stroke-linejoin="bevel"/>
<path d="M18.7595 62.5728H81.516" stroke="black" stroke-width="0.728" stroke-linejoin="bevel"/>
<path d="M34.8299 61.4072C34.3008 61.5146 33.8007 61.5684 33.2964 61.5684C29.5144 61.5684 26.2863 58.923 26.2863 54.9261C26.2863 51.7021 28.5596 48.817 30.8908 46.8041C31.3372 46.4073 31.763 46.0394 32.1598 45.6426C32.3954 47.0686 32.5813 48.3128 32.7673 49.3998C30.3576 50.1149 28.7208 52.6528 28.7208 55.141C28.7208 56.9928 30.1758 59.5306 32.292 59.5306C32.5028 59.5306 32.7426 59.4232 32.7426 59.1876C32.7426 58.9479 32.478 58.8156 32.1598 58.6048C31.1264 57.9682 30.5436 57.2821 30.5436 55.9842C30.5436 54.3722 31.734 53.0744 33.2964 52.7065L34.8299 61.4072ZM32.5028 34.214C32.7426 33.1558 33.9577 30.3782 35.3342 30.3782C35.731 30.3782 36.3634 31.672 36.3634 33.4989C36.3634 36.2517 34.3298 38.3142 32.5028 40.1122C32.3458 39.0541 32.2135 38.0249 32.2135 36.913C32.2135 35.9334 32.292 35.0324 32.5028 34.214ZM38.5871 56.5133C38.5871 58.394 37.8183 60.3242 35.9417 61.0931C35.3879 57.9186 34.6728 53.7109 34.4868 52.5453C36.8676 52.5453 38.5871 54.1614 38.5871 56.5133ZM26.9476 69.5292C26.9476 71.2776 28.2951 73.5799 31.8663 73.5799C33.1104 73.5799 34.1975 73.2616 35.1481 72.6788C36.5783 71.6744 36.9461 69.926 36.9461 68.2602C36.9461 67.2311 36.7891 66.0406 36.5246 64.532C36.446 64.0029 36.2848 63.2093 36.1278 62.176C38.7193 61.3287 40.6496 58.6296 40.6496 55.9057C40.6496 51.9129 37.8183 49.2138 33.9577 49.2138C33.6932 47.6266 33.4287 46.0642 33.189 44.5845C35.9955 41.6457 37.9257 38.339 37.9257 34.1354C37.9257 31.7257 37.1859 29.7706 36.7602 28.8159C36.1278 27.4684 35.3589 26.5425 34.8836 26.5425C34.6976 26.5425 33.8792 26.8608 33.0071 27.8901C31.3124 29.9029 30.8371 33.2881 30.8371 35.5077C30.8371 36.9378 30.9694 38.2357 31.4199 41.1993C31.3909 41.2241 30.0146 42.6253 29.4607 43.0759C27.051 45.3244 23.7195 48.5236 23.7195 53.8184C23.7195 58.7619 28.0306 62.6513 32.9534 62.6513C33.718 62.6513 34.4331 62.5728 35.0407 62.4653C35.5449 65.0073 35.8343 66.859 35.8343 68.2602C35.8343 71.0131 34.4331 72.468 31.763 72.468C31.1264 72.468 30.5726 72.3357 30.5188 72.3357C30.494 72.3068 30.4403 72.282 30.4403 72.2572C30.4403 72.2035 30.494 72.1745 30.5726 72.1497C31.8167 71.9637 33.0567 70.9056 33.0567 69.2151C33.0567 67.7849 31.9737 66.2762 29.9897 66.2762C28.138 66.2762 26.9476 67.7849 26.9476 69.5292Z" fill="black"/>
<path d="M80.9208 35.7557V62.9365" stroke="black" stroke-width="1.18933" stroke-linejoin="bevel"/>
<path d="M54.0582 48.2879C54.0582 50.3794 52.9712 51.4871 51.4377 52.7065L51.5162 47.5481C51.57 47.3083 51.9668 46.5437 53.0249 46.5437C53.9797 46.5437 54.0582 47.4406 54.0582 47.9986V48.2879ZM53.74 45.2458C52.4173 45.2458 51.6485 46.0642 51.5162 46.2254L51.6237 37.7314C51.6237 37.5206 51.4666 37.3635 51.2517 37.3635H50.9376C50.7226 37.3635 50.5656 37.5206 50.5656 37.7314L50.6978 53.6323C50.6978 53.8431 50.8549 54.0002 51.0698 54.0002C51.1194 54.0002 51.2269 53.9754 51.2806 53.9506C53.554 52.8098 55.9348 50.6439 55.9348 47.9159C55.9348 46.5437 55.3024 45.2458 53.74 45.2458Z" fill="black"/>
<path d="M61.0807 41.6747C61.0807 43.7661 59.9936 44.8739 58.4601 46.0932L58.5387 40.9348C58.5924 40.6951 58.9892 39.9304 60.0473 39.9304C61.0022 39.9304 61.0807 40.8273 61.0807 41.3853V41.6747ZM60.7624 38.6325C59.4397 38.6325 58.6709 39.4509 58.5387 39.6121L58.6461 31.1181C58.6461 30.9073 58.4891 30.7502 58.2741 30.7502H57.96C57.7451 30.7502 57.588 30.9073 57.588 31.1181L57.7203 47.019C57.7203 47.2299 57.8773 47.3869 58.0923 47.3869C58.1419 47.3869 58.2493 47.3621 58.3031 47.3373C60.5764 46.1965 62.9572 44.0307 62.9572 41.3027C62.9572 39.9304 62.3248 38.6325 60.7624 38.6325Z" fill="black"/>
<path d="M64.9413 37.2307V69.1862" stroke="black" stroke-width="0.661333" stroke-linejoin="bevel"/>
<path d="M64.6107 50.458C64.6107 51.5947 65.4291 52.8636 67.5743 52.8636C70.3229 52.8636 73.208 50.6151 73.208 48.288C73.208 46.7256 71.8853 45.8535 70.2444 45.8535C67.6776 45.8535 64.6107 48.0235 64.6107 50.458Z" fill="black"/>
<path d="M64.6107 43.8446C64.6107 44.9813 65.4291 46.2502 67.5743 46.2502C70.3229 46.2502 73.208 44.0017 73.208 41.6746C73.208 40.1122 71.8853 39.2401 70.2444 39.2401C67.6776 39.2401 64.6107 41.4101 64.6107 43.8446Z" fill="black"/>
<path d="M64.6107 37.2314C64.6107 38.368 65.4291 39.637 67.5743 39.637C70.3229 39.637 73.208 37.3884 73.208 35.0614C73.208 33.499 71.8853 32.6268 70.2444 32.6268C67.6776 32.6268 64.6107 34.7968 64.6107 37.2314Z" fill="black"/>
</g>
<defs>
<clipPath id="clip0_14_2">
<rect width="100" height="100" fill="white"/>
</clipPath>
</defs>
</svg>
